<svg xmlns="http://www.w3.org/2000/svg" xmlns:xlink="http://www.w3.org/1999/xlink" id="svg" version="1.1" viewBox="101.2 98.33 201.88 200.29"><g id="svgg"><path id="path0" d="M200.488 99.113 C 201.294 99.197,202.612 99.197,203.418 99.113 C 204.224 99.028,203.564 98.959,201.953 98.959 C 200.342 98.959,199.683 99.028,200.488 99.113 M287.238 198.633 C 287.239 200.137,287.310 200.704,287.394 199.894 C 287.479 199.083,287.478 197.853,287.391 197.159 C 287.305 196.466,287.236 197.129,287.238 198.633 M302.450 199.609 C 302.450 200.576,302.526 200.972,302.619 200.488 C 302.713 200.005,302.713 199.214,302.619 198.730 C 302.526 198.247,302.450 198.643,302.450 199.609 M269.990 250.513 C 269.523 251.011,269.141 251.724,269.141 252.099 C 269.141 252.534,268.964 252.679,268.652 252.499 C 268.384 252.345,268.301 252.369,268.468 252.553 C 268.636 252.737,269.047 252.928,269.383 252.977 C 269.719 253.026,269.891 252.964,269.766 252.839 C 269.641 252.713,269.756 252.341,270.023 252.012 C 270.410 251.534,270.409 251.472,270.020 251.706 C 269.748 251.869,269.531 251.810,269.531 251.573 C 269.531 251.339,269.781 251.051,270.087 250.934 C 270.393 250.817,270.739 250.471,270.856 250.165 C 271.152 249.395,270.974 249.466,269.990 250.513 M285.904 250.879 C 285.655 251.362,284.989 252.268,284.425 252.892 C 283.652 253.746,283.573 253.965,284.102 253.776 C 284.492 253.637,284.707 253.685,284.584 253.884 C 284.462 254.081,284.525 254.344,284.725 254.467 C 284.924 254.590,285.038 254.383,284.977 254.006 C 284.848 253.211,285.487 252.260,285.955 252.550 C 286.130 252.658,286.401 252.541,286.557 252.290 C 286.746 251.983,286.669 251.938,286.322 252.152 C 285.942 252.387,285.874 252.292,286.066 251.790 C 286.210 251.415,286.328 250.925,286.328 250.701 C 286.328 250.469,286.621 250.525,287.012 250.831 C 287.631 251.317,287.645 251.303,287.159 250.684 C 286.480 249.817,286.447 249.822,285.904 250.879 M278.223 253.666 C 274.889 254.026,273.814 254.688,276.563 254.688 C 277.422 254.688,278.125 254.863,278.125 255.078 C 278.125 255.293,277.422 255.469,276.563 255.469 C 275.703 255.469,275.000 255.626,275.000 255.819 C 275.000 256.011,273.594 256.293,271.875 256.445 C 269.165 256.685,268.750 256.820,268.750 257.463 C 268.750 258.066,268.461 258.203,267.188 258.203 C 266.199 258.203,265.624 258.383,265.622 258.691 C 265.618 259.414,263.105 260.995,262.395 260.723 C 261.837 260.509,259.888 261.456,259.349 262.203 C 259.227 262.372,257.162 262.623,254.759 262.760 C 251.290 262.959,250.391 263.128,250.391 263.584 C 250.391 264.054,250.283 264.069,249.795 263.664 C 249.468 263.392,249.077 263.292,248.928 263.442 C 248.778 263.592,248.839 263.837,249.063 263.986 C 249.642 264.372,250.050 265.625,249.597 265.625 C 249.389 265.625,249.216 265.317,249.213 264.941 C 249.208 264.388,249.140 264.363,248.858 264.809 C 248.575 265.256,248.474 265.219,248.329 264.614 C 248.231 264.203,248.185 264.358,248.229 264.959 C 248.272 265.559,248.161 266.141,247.982 266.251 C 247.652 266.455,247.503 265.870,247.637 264.900 C 247.677 264.609,247.480 264.447,247.199 264.540 C 246.913 264.636,246.686 265.297,246.684 266.047 C 246.679 267.537,246.282 268.366,245.582 268.347 C 245.327 268.340,245.456 268.078,245.870 267.765 C 246.284 267.452,246.524 267.097,246.403 266.976 C 246.282 266.855,245.811 267.228,245.357 267.806 C 244.903 268.383,244.531 268.717,244.531 268.547 C 244.531 268.377,244.173 268.562,243.736 268.958 C 243.299 269.353,243.019 269.879,243.113 270.125 C 243.208 270.371,243.046 270.573,242.753 270.573 C 242.461 270.573,242.328 270.382,242.457 270.150 C 242.597 269.899,242.493 269.911,242.201 270.181 C 241.630 270.708,242.035 271.625,242.665 271.235 C 242.919 271.078,242.977 271.155,242.810 271.425 C 242.617 271.738,242.309 271.758,241.812 271.493 C 241.123 271.124,240.377 271.877,240.563 272.754 C 240.597 272.915,240.383 273.047,240.087 273.047 C 239.791 273.047,239.267 273.442,238.923 273.926 C 238.366 274.708,238.322 274.719,238.517 274.023 L 238.736 273.242 238.090 274.023 C 237.735 274.453,237.281 274.761,237.082 274.707 C 236.882 274.653,236.719 274.785,236.719 275.000 C 236.719 275.215,236.474 275.391,236.175 275.391 C 235.875 275.391,235.525 275.665,235.396 276.001 C 235.265 276.343,234.962 276.489,234.708 276.332 C 234.436 276.164,234.359 276.221,234.516 276.475 C 234.660 276.708,234.600 277.010,234.381 277.144 C 234.163 277.279,233.984 277.204,233.984 276.976 C 233.984 276.749,233.619 276.928,233.173 277.374 C 232.727 277.820,232.111 278.089,231.806 277.972 C 231.459 277.839,231.248 278.011,231.244 278.430 C 231.239 278.943,231.161 278.979,230.910 278.584 C 230.644 278.165,230.465 278.185,229.961 278.689 C 229.619 279.031,229.118 279.264,228.847 279.206 C 228.577 279.149,228.326 279.321,228.289 279.590 C 228.253 279.858,228.201 280.172,228.174 280.287 C 228.147 280.402,227.773 280.308,227.344 280.078 C 226.782 279.778,226.563 279.781,226.563 280.091 C 226.563 280.352,226.236 280.418,225.732 280.258 C 225.178 280.082,224.990 280.137,225.167 280.422 C 225.333 280.691,225.204 280.763,224.820 280.616 C 224.484 280.487,223.947 280.598,223.628 280.864 C 223.308 281.129,223.047 281.215,223.047 281.055 C 223.047 280.895,222.791 280.976,222.478 281.236 C 222.165 281.495,221.699 281.578,221.441 281.419 C 221.126 281.224,221.076 281.296,221.287 281.637 C 221.523 282.018,221.348 282.096,220.585 281.950 C 219.978 281.834,219.601 281.926,219.648 282.177 C 219.691 282.409,219.312 282.662,218.804 282.738 C 218.215 282.828,217.977 282.725,218.144 282.455 C 218.291 282.217,218.128 282.031,217.773 282.031 C 217.395 282.031,217.253 282.212,217.420 282.483 C 217.622 282.810,217.278 282.867,216.174 282.689 C 215.313 282.551,214.875 282.585,215.168 282.768 C 215.530 282.994,215.293 283.172,214.390 283.352 C 213.619 283.507,213.038 283.450,212.959 283.212 C 212.885 282.992,212.533 282.815,212.174 282.818 C 211.611 282.824,211.603 282.876,212.109 283.203 C 212.529 283.474,212.113 283.583,210.645 283.588 C 209.517 283.591,208.594 283.738,208.594 283.913 C 208.594 284.089,207.073 284.254,205.214 284.279 C 203.355 284.304,201.729 284.483,201.601 284.676 C 201.472 284.870,201.016 285.227,200.586 285.471 L 199.805 285.914 200.586 285.932 C 201.234 285.946,201.268 286.014,200.781 286.328 C 200.291 286.645,200.318 286.708,200.944 286.713 C 201.356 286.716,201.563 286.848,201.405 287.007 C 201.090 287.321,200.899 287.352,198.730 287.441 C 197.554 287.488,197.266 287.651,197.266 288.269 C 197.266 288.773,197.074 288.965,196.711 288.825 C 196.056 288.574,194.360 289.592,192.910 291.106 C 191.870 292.192,190.625 292.552,190.625 291.768 C 190.625 291.537,189.878 291.760,188.965 292.264 C 188.052 292.767,187.362 293.345,187.431 293.547 C 187.605 294.051,186.442 294.461,184.570 294.555 L 183.008 294.634 184.375 294.922 L 185.742 295.210 184.180 295.314 C 183.099 295.387,182.919 295.466,183.594 295.573 C 186.122 295.971,186.505 296.132,185.917 296.548 C 185.483 296.855,185.534 296.883,186.133 296.669 C 187.186 296.291,190.399 296.440,190.553 296.874 C 190.620 297.065,190.957 297.114,191.300 296.982 C 191.692 296.832,191.828 296.900,191.664 297.165 C 191.483 297.458,192.124 297.530,193.748 297.401 C 195.385 297.270,196.094 297.351,196.094 297.670 C 196.094 298.494,212.001 297.790,218.555 296.676 C 225.261 295.535,235.156 292.837,235.156 292.148 C 235.156 291.929,235.327 291.856,235.536 291.985 C 236.021 292.285,241.797 289.895,241.797 289.394 C 241.797 289.186,241.978 289.128,242.200 289.265 C 242.808 289.641,250.041 285.936,249.737 285.405 C 249.598 285.161,249.623 285.086,249.792 285.238 C 250.405 285.792,258.299 281.260,259.734 279.531 C 260.019 279.187,260.475 278.906,260.749 278.906 C 261.022 278.906,261.810 278.379,262.500 277.734 C 263.190 277.090,263.836 276.563,263.936 276.563 C 264.424 276.563,267.922 273.288,267.743 272.998 C 267.630 272.815,267.783 272.759,268.082 272.874 C 268.766 273.137,271.613 270.056,271.242 269.455 C 271.076 269.186,271.151 269.130,271.439 269.308 C 272.075 269.701,274.397 267.402,274.005 266.768 C 273.842 266.502,273.868 266.385,274.065 266.507 C 274.556 266.810,275.915 265.766,275.629 265.304 C 275.503 265.100,275.680 264.956,276.024 264.986 C 276.368 265.015,276.850 264.697,277.094 264.279 C 277.339 263.861,277.847 263.169,278.223 262.741 C 278.599 262.312,278.906 261.809,278.906 261.622 C 278.906 261.435,279.038 261.362,279.199 261.459 C 279.557 261.676,280.504 260.712,280.216 260.424 C 280.103 260.311,280.464 259.922,281.017 259.559 C 281.571 259.196,281.931 258.748,281.817 258.564 C 281.704 258.379,281.956 258.013,282.379 257.748 C 283.009 257.355,283.071 257.123,282.721 256.466 C 282.353 255.774,282.375 255.731,282.882 256.149 C 283.206 256.416,283.574 256.530,283.700 256.404 C 284.050 256.054,283.562 255.052,283.162 255.299 C 282.970 255.418,282.813 255.329,282.813 255.101 C 282.813 254.155,282.027 254.776,281.978 255.762 C 281.931 256.716,281.906 256.735,281.753 255.934 C 281.658 255.439,281.854 254.615,282.189 254.104 C 282.750 253.248,282.745 253.180,282.122 253.246 C 281.750 253.286,279.995 253.475,278.223 253.666 M282.813 254.255 C 282.813 254.688,284.014 255.178,284.322 254.871 C 284.446 254.747,284.289 254.481,283.973 254.282 C 283.243 253.820,282.813 253.810,282.813 254.255 M203.809 254.573 C 204.292 254.666,205.083 254.666,205.566 254.573 C 206.050 254.479,205.654 254.403,204.688 254.403 C 203.721 254.403,203.325 254.479,203.809 254.573 M279.515 260.235 C 279.565 260.577,279.366 260.821,279.072 260.778 C 278.301 260.665,278.007 260.273,278.317 259.771 C 278.680 259.184,279.402 259.463,279.515 260.235 " stroke="none" fill="#c2ccd3" fill-rule="evenodd"/><path id="path1" d="M192.578 99.586 C 184.880 100.392,168.028 104.617,168.630 105.590 C 168.767 105.811,168.674 105.858,168.415 105.698 C 167.768 105.299,164.392 106.641,157.754 109.939 C 151.470 113.061,150.208 113.804,144.777 117.578 C 136.420 123.385,126.508 132.747,127.445 133.949 C 127.855 134.475,127.840 134.502,127.344 134.123 C 126.657 133.599,122.439 138.004,122.905 138.759 C 123.050 138.992,123.002 139.081,122.800 138.956 C 121.992 138.457,115.735 147.993,111.965 155.469 C 99.893 179.412,98.634 209.104,108.635 233.982 C 111.163 240.270,115.023 247.882,115.614 247.744 C 115.867 247.685,115.963 247.816,115.828 248.034 C 115.351 248.806,122.028 258.396,122.737 257.958 C 123.002 257.794,123.056 257.872,122.878 258.160 C 122.517 258.744,123.381 259.847,123.933 259.506 C 124.178 259.354,124.221 259.445,124.043 259.734 C 123.621 260.417,125.420 262.295,125.854 261.625 C 126.058 261.312,126.138 261.487,126.075 262.109 C 126.011 262.749,126.155 263.049,126.494 262.979 C 126.778 262.920,126.912 263.031,126.791 263.227 C 126.500 263.698,127.519 264.529,127.931 264.157 C 128.106 263.997,128.128 264.080,127.979 264.340 C 127.815 264.625,128.692 265.828,130.187 267.367 C 132.492 269.742,133.633 270.589,132.968 269.434 C 132.814 269.165,132.831 269.076,133.007 269.235 C 133.183 269.394,133.533 269.353,133.786 269.143 C 134.101 268.882,134.245 268.938,134.245 269.325 C 134.245 269.634,134.110 269.804,133.946 269.703 C 133.782 269.602,133.534 269.702,133.395 269.927 C 133.156 270.315,134.669 272.245,135.224 272.259 C 135.368 272.263,135.991 272.749,136.607 273.340 C 139.000 275.634,140.715 276.944,141.053 276.735 C 141.247 276.615,141.406 276.801,141.406 277.148 C 141.406 277.496,141.582 277.672,141.797 277.539 C 142.012 277.406,142.188 277.519,142.188 277.789 C 142.188 278.172,142.292 278.177,142.656 277.813 C 143.361 277.108,143.828 277.249,143.406 278.039 C 142.995 278.805,145.069 280.398,145.522 279.664 C 145.830 279.167,146.484 279.198,146.484 279.711 C 146.484 279.938,146.309 280.016,146.094 279.883 C 145.879 279.750,145.703 279.951,145.703 280.329 C 145.703 281.371,146.671 280.264,146.711 279.177 C 146.839 275.595,146.745 275.781,148.438 275.781 C 149.297 275.781,150.000 275.605,150.000 275.391 C 150.000 275.176,149.297 275.000,148.438 275.000 C 147.135 275.000,146.875 274.870,146.875 274.219 C 146.875 273.570,147.135 273.438,148.411 273.438 C 149.604 273.438,150.003 273.263,150.195 272.656 C 150.394 272.030,150.786 271.875,152.175 271.875 C 153.180 271.875,153.906 271.694,153.906 271.443 C 153.906 271.205,154.183 271.116,154.520 271.246 C 154.858 271.376,155.485 271.294,155.914 271.065 C 156.510 270.745,156.924 270.799,157.677 271.293 C 158.219 271.647,158.749 271.850,158.856 271.743 C 158.964 271.635,158.641 271.331,158.139 271.067 C 157.637 270.802,155.793 269.570,154.040 268.330 C 152.288 267.089,150.750 266.178,150.622 266.305 C 150.165 266.762,150.402 267.267,150.972 267.048 C 151.308 266.919,151.514 267.025,151.460 267.299 C 151.409 267.560,151.661 267.751,152.020 267.724 C 152.424 267.694,152.594 267.880,152.466 268.213 C 152.219 268.858,151.563 268.930,151.563 268.312 C 151.563 267.996,151.408 268.002,151.011 268.331 C 150.328 268.898,150.080 268.510,150.156 266.992 C 150.240 265.310,148.989 263.949,147.895 264.532 C 147.152 264.928,147.124 264.907,147.606 264.322 C 148.101 263.723,147.946 263.495,147.139 263.635 C 146.962 263.666,146.916 263.530,147.038 263.334 C 147.159 263.137,146.865 262.715,146.383 262.396 C 144.855 261.384,138.067 254.238,136.399 251.885 C 136.116 251.486,135.693 251.277,135.460 251.421 C 135.225 251.566,135.146 251.504,135.284 251.282 C 135.420 251.061,134.425 249.408,133.073 247.608 C 131.720 245.808,130.495 244.017,130.349 243.628 C 130.195 243.218,129.892 243.037,129.630 243.200 C 129.359 243.367,129.281 243.310,129.436 243.059 C 129.793 242.482,128.150 239.782,127.636 240.100 C 127.406 240.242,127.337 240.171,127.481 239.938 C 127.622 239.709,126.792 237.617,125.635 235.288 C 114.009 211.884,114.148 184.948,126.015 161.605 C 126.975 159.717,127.640 157.975,127.492 157.736 C 127.337 157.486,127.399 157.410,127.638 157.558 C 127.879 157.707,129.060 156.186,130.453 153.932 C 131.772 151.797,133.741 148.940,134.828 147.584 C 135.914 146.227,137.044 144.776,137.338 144.360 C 137.632 143.943,137.990 143.719,138.133 143.862 C 138.276 144.005,138.203 144.350,137.972 144.628 C 135.538 147.562,134.568 162.589,136.353 169.727 C 136.568 170.586,136.837 171.729,136.951 172.266 C 137.816 176.351,141.950 185.305,144.664 188.972 C 146.235 191.095,147.840 192.951,147.444 192.188 C 147.265 191.841,147.286 191.735,147.496 191.927 C 147.692 192.106,147.852 192.394,147.852 192.567 C 147.852 193.038,150.855 196.541,151.072 196.324 C 151.175 196.221,151.695 196.655,152.227 197.288 C 152.760 197.922,153.383 198.324,153.612 198.183 C 153.840 198.042,153.914 198.109,153.776 198.332 C 153.571 198.663,158.861 202.734,159.497 202.734 C 159.601 202.734,160.853 203.444,162.280 204.310 C 163.707 205.177,165.087 205.764,165.347 205.615 C 165.607 205.466,165.688 205.490,165.525 205.669 C 165.280 205.939,170.400 208.507,171.680 208.756 C 171.895 208.797,172.651 209.139,173.361 209.515 C 175.679 210.742,207.916 224.140,209.165 224.395 C 209.388 224.441,210.603 224.947,211.865 225.520 C 213.127 226.093,214.402 226.563,214.697 226.563 C 214.993 226.563,215.234 226.738,215.234 226.953 C 215.234 227.168,215.427 227.344,215.662 227.344 C 215.898 227.344,216.600 227.706,217.222 228.150 C 217.845 228.593,218.535 228.844,218.757 228.707 C 218.979 228.570,219.112 228.690,219.053 228.975 C 218.993 229.261,219.249 229.468,219.625 229.439 C 219.998 229.409,220.221 229.520,220.119 229.684 C 219.883 230.067,222.684 233.043,223.147 232.900 C 223.339 232.841,223.402 232.944,223.288 233.128 C 223.174 233.313,223.509 234.504,224.031 235.775 C 224.704 237.412,224.992 238.884,225.018 240.820 C 225.055 243.587,225.695 243.482,225.754 240.700 C 225.771 239.909,225.939 239.505,226.188 239.658 C 226.411 239.796,226.507 240.202,226.400 240.560 C 226.294 240.918,226.357 241.826,226.540 242.578 L 226.873 243.945 226.913 242.308 C 226.952 240.720,227.703 239.474,227.765 240.895 C 227.783 241.305,227.879 241.397,227.993 241.113 C 228.104 240.839,228.862 240.625,229.720 240.625 C 230.990 240.625,231.250 240.492,231.250 239.844 C 231.250 239.193,231.510 239.063,232.813 239.063 C 233.672 239.063,234.375 238.887,234.375 238.672 C 234.375 238.100,237.398 238.191,237.634 238.770 C 237.743 239.038,237.810 238.810,237.783 238.263 C 237.740 237.392,237.585 237.285,236.542 237.407 L 235.352 237.546 236.230 236.777 C 236.714 236.354,237.109 235.816,237.109 235.582 C 237.109 234.534,237.832 235.300,238.089 236.621 C 238.337 237.890,238.421 237.982,238.725 237.305 C 238.977 236.741,239.029 236.987,238.910 238.184 C 238.820 239.097,238.905 239.844,239.100 239.844 C 240.250 239.844,238.575 232.393,236.509 228.320 C 234.901 225.152,231.389 220.571,230.831 220.916 C 230.621 221.046,230.498 220.932,230.557 220.664 C 230.697 220.025,223.451 215.145,222.758 215.412 C 222.465 215.524,222.319 215.464,222.433 215.279 C 222.710 214.831,213.041 210.546,205.469 207.761 C 204.287 207.327,202.793 206.725,202.148 206.424 C 200.286 205.555,193.561 202.788,188.672 200.880 C 186.201 199.916,183.477 198.770,182.617 198.334 C 181.758 197.898,181.014 197.558,180.965 197.580 C 180.277 197.881,167.223 191.319,165.295 189.703 C 164.361 188.921,163.411 188.396,163.184 188.537 C 162.956 188.677,162.873 188.625,163.000 188.421 C 163.126 188.216,162.366 187.213,161.310 186.192 C 145.586 170.986,146.151 145.234,162.583 128.213 C 163.993 126.753,165.866 125.059,166.746 124.449 C 167.650 123.823,168.236 123.149,168.095 122.901 C 167.956 122.659,167.989 122.593,168.168 122.755 C 168.346 122.917,168.896 122.785,169.389 122.462 C 188.338 110.046,223.151 111.706,245.861 126.108 C 246.911 126.774,247.965 127.209,248.202 127.074 C 248.439 126.938,248.507 126.967,248.353 127.138 C 248.199 127.308,249.286 128.347,250.768 129.446 C 256.111 133.410,257.667 134.705,260.742 137.752 C 264.380 141.356,267.920 145.204,268.982 146.710 C 269.391 147.291,270.078 148.245,270.508 148.830 C 270.938 149.414,271.920 150.795,272.691 151.898 C 273.461 153.001,274.179 153.816,274.286 153.709 C 274.392 153.603,274.487 153.735,274.497 154.004 C 274.507 154.272,275.408 156.026,276.499 157.900 C 284.742 172.056,288.676 189.686,287.070 205.273 C 286.782 208.066,286.560 211.200,286.576 212.236 C 286.592 213.272,286.478 213.914,286.322 213.661 C 286.079 213.269,285.563 215.356,285.331 217.660 C 285.295 218.027,285.041 218.867,284.767 219.528 C 284.494 220.188,284.381 220.840,284.518 220.976 C 284.654 221.112,284.778 220.975,284.793 220.671 C 284.810 220.331,284.963 220.420,285.190 220.898 C 285.511 221.578,285.535 221.551,285.372 220.691 C 285.269 220.148,285.300 219.269,285.441 218.738 L 285.698 217.773 286.008 218.750 C 286.250 219.514,286.278 219.430,286.134 218.359 C 285.961 217.061,285.982 217.032,286.556 217.773 C 287.134 218.520,287.150 218.502,286.908 217.383 C 286.706 216.446,286.747 216.329,287.109 216.797 C 287.477 217.272,287.521 217.187,287.338 216.346 C 287.077 215.141,289.335 213.458,290.652 213.876 C 291.127 214.027,291.544 213.831,291.874 213.302 C 292.150 212.861,292.685 212.500,293.063 212.500 C 293.490 212.500,293.750 212.204,293.750 211.719 C 293.750 211.068,294.010 210.938,295.313 210.938 C 296.172 210.938,296.875 210.772,296.875 210.569 C 296.875 210.367,297.608 210.147,298.505 210.081 C 300.313 209.948,300.170 210.241,300.751 205.469 C 301.043 203.075,301.062 203.175,301.087 207.227 C 301.121 212.669,300.823 215.697,300.286 215.365 C 300.045 215.216,299.997 215.304,300.167 215.579 C 300.597 216.275,300.015 219.196,299.508 218.883 C 299.236 218.715,299.179 218.865,299.348 219.304 C 299.492 219.679,299.625 220.279,299.645 220.637 C 299.728 222.172,301.197 214.587,301.788 209.570 C 303.952 191.203,300.333 171.393,291.762 154.688 C 289.146 149.590,286.907 146.042,286.523 146.390 C 286.347 146.549,286.311 146.489,286.444 146.256 C 286.576 146.024,286.079 144.969,285.339 143.913 C 284.598 142.856,283.359 141.069,282.583 139.941 C 281.808 138.813,281.044 137.891,280.884 137.891 C 280.725 137.891,280.413 137.495,280.192 137.012 C 279.068 134.557,266.464 122.499,260.899 118.555 C 259.990 117.910,258.484 116.813,257.553 116.116 C 256.621 115.419,255.857 114.980,255.853 115.139 C 255.850 115.299,255.718 115.238,255.560 115.004 C 255.107 114.331,250.168 111.468,245.898 109.403 C 242.296 107.661,240.779 107.002,235.938 105.076 C 224.985 100.720,205.417 98.242,192.578 99.586 M194.727 129.318 C 161.092 132.545,154.711 169.443,185.279 183.956 C 189.595 186.006,198.569 189.769,199.738 190.020 C 199.989 190.074,201.250 190.603,202.539 191.196 C 203.828 191.790,206.992 193.112,209.570 194.136 C 220.540 198.492,230.121 202.519,232.923 203.953 C 234.166 204.588,235.379 204.986,235.620 204.838 C 235.907 204.660,235.948 204.745,235.738 205.084 C 235.499 205.472,235.603 205.531,236.154 205.319 C 236.559 205.164,236.770 205.157,236.622 205.305 C 236.320 205.607,237.980 207.031,238.636 207.031 C 238.870 207.031,239.063 207.207,239.063 207.422 C 239.063 207.637,239.246 207.813,239.470 207.813 C 239.694 207.812,240.342 208.243,240.908 208.768 C 241.475 209.294,242.087 209.632,242.268 209.520 C 242.449 209.408,242.549 209.466,242.490 209.648 C 242.352 210.075,245.506 212.937,245.840 212.688 C 245.980 212.585,246.010 212.613,245.907 212.752 C 245.805 212.890,246.200 213.551,246.786 214.220 C 247.372 214.890,248.637 216.754,249.597 218.363 C 250.557 219.972,251.495 221.397,251.681 221.528 C 251.868 221.659,251.994 221.883,251.962 222.026 C 251.930 222.168,252.283 223.291,252.746 224.521 C 254.025 227.922,255.078 233.992,255.078 237.970 C 255.078 239.931,255.151 241.463,255.239 241.374 C 255.578 241.031,256.122 237.142,255.804 237.339 C 255.349 237.620,255.382 237.209,255.938 235.672 C 256.196 234.959,256.596 234.375,256.827 234.375 C 257.059 234.375,257.825 233.848,258.531 233.203 C 259.435 232.377,260.210 232.031,261.157 232.031 C 261.896 232.031,262.500 231.855,262.500 231.641 C 262.500 231.426,262.720 231.244,262.988 231.236 C 264.168 231.202,265.699 229.405,265.739 228.007 C 265.761 227.240,265.935 226.708,266.126 226.826 C 266.318 226.945,266.385 227.384,266.275 227.802 C 266.158 228.250,266.305 228.651,266.632 228.777 C 267.454 229.092,267.306 229.688,266.406 229.688 C 265.567 229.688,265.300 230.439,266.113 230.514 C 268.497 230.733,269.114 230.093,268.699 227.827 C 267.847 223.166,264.688 214.652,263.975 215.093 C 263.745 215.235,263.656 215.109,263.768 214.800 C 264.035 214.068,262.100 210.506,261.603 210.814 C 261.385 210.948,261.315 210.884,261.447 210.670 C 261.986 209.798,254.615 200.929,253.780 201.445 C 253.568 201.576,253.513 201.492,253.657 201.259 C 253.974 200.746,252.377 199.543,251.829 199.881 C 251.616 200.013,251.554 199.940,251.691 199.718 C 252.286 198.755,242.141 192.367,235.938 189.798 C 234.326 189.131,232.305 188.270,231.445 187.885 C 230.586 187.501,224.346 184.948,217.578 182.213 C 189.862 171.011,191.426 171.688,188.147 169.463 C 186.712 168.488,185.625 168.004,185.218 168.159 C 184.723 168.347,184.678 168.297,185.026 167.947 C 185.373 167.596,185.225 167.237,184.402 166.432 C 179.410 161.553,179.419 152.700,184.421 147.748 C 189.976 142.248,195.392 141.930,235.938 144.718 C 243.442 145.235,248.828 145.408,248.828 145.134 C 248.828 144.746,242.187 140.762,237.581 138.387 C 223.113 130.928,209.024 127.947,194.727 129.318 M283.465 223.991 C 283.348 224.296,283.467 224.627,283.730 224.728 C 284.002 224.832,284.208 224.595,284.208 224.174 C 284.208 223.308,283.769 223.199,283.465 223.991 M283.043 225.334 C 282.637 225.991,282.505 228.120,282.885 227.885 C 283.083 227.763,283.171 227.459,283.081 227.210 C 282.991 226.961,283.084 226.435,283.288 226.041 C 283.674 225.290,283.457 224.664,283.043 225.334 M297.879 226.786 C 297.736 227.358,297.694 227.902,297.786 227.994 C 297.878 228.086,298.071 227.693,298.214 227.121 C 298.358 226.548,298.400 226.004,298.308 225.912 C 298.216 225.820,298.023 226.213,297.879 226.786 M268.985 231.967 C 268.874 232.147,268.936 232.806,269.124 233.432 C 269.462 234.563,269.464 234.561,269.498 233.105 C 269.531 231.661,269.380 231.327,268.985 231.967 M255.912 234.082 C 255.785 234.875,255.651 235.086,255.556 234.645 C 255.410 233.974,255.676 232.813,255.975 232.813 C 256.052 232.813,256.023 233.384,255.912 234.082 M239.091 241.602 C 238.739 245.177,238.757 247.495,239.124 245.898 C 239.322 245.039,239.422 243.457,239.346 242.383 C 239.257 241.135,239.165 240.853,239.091 241.602 M269.231 242.578 C 269.231 243.330,269.312 243.638,269.410 243.262 C 269.508 242.886,269.508 242.271,269.410 241.895 C 269.312 241.519,269.231 241.826,269.231 242.578 M223.568 247.099 C 223.322 247.620,223.280 248.047,223.474 248.047 C 223.669 248.047,223.828 247.852,223.828 247.614 C 223.828 247.374,224.113 247.291,224.469 247.428 C 225.028 247.642,225.042 247.585,224.580 246.982 C 224.288 246.601,224.042 246.258,224.032 246.220 C 224.023 246.182,223.814 246.577,223.568 247.099 M155.648 253.100 C 155.815 253.369,156.371 253.509,156.885 253.411 C 157.561 253.281,157.716 253.357,157.444 253.684 C 156.969 254.256,161.093 256.822,161.817 256.405 C 162.085 256.251,162.173 256.270,162.013 256.447 C 161.524 256.986,164.556 258.604,165.143 258.117 C 165.516 257.807,165.589 257.844,165.429 258.260 C 165.250 258.725,170.548 261.783,171.817 261.947 C 172.062 261.978,172.652 262.203,175.977 263.526 C 176.836 263.868,177.957 264.311,178.468 264.510 C 178.980 264.710,179.489 264.782,179.599 264.671 C 179.710 264.561,179.380 264.301,178.865 264.096 C 178.351 263.890,178.083 263.710,178.270 263.697 C 178.750 263.662,177.731 262.500,177.221 262.500 C 176.992 262.500,177.128 262.737,177.525 263.027 C 178.176 263.503,178.127 263.537,177.017 263.374 C 176.342 263.275,175.886 263.038,176.004 262.847 C 176.122 262.656,175.953 262.500,175.628 262.500 C 175.304 262.500,174.858 262.192,174.636 261.816 C 174.373 261.370,174.129 261.277,173.933 261.547 C 173.723 261.837,173.357 261.821,172.719 261.494 C 172.050 261.151,171.940 260.944,172.306 260.717 C 172.594 260.539,172.870 260.603,172.959 260.868 C 173.043 261.121,173.283 261.328,173.493 261.328 C 173.703 261.328,173.766 261.152,173.633 260.938 C 173.264 260.341,173.879 260.472,174.628 261.149 C 176.047 262.434,178.104 260.753,178.115 258.301 L 178.125 256.250 179.590 256.223 C 182.030 256.177,182.931 255.613,181.055 255.306 C 176.765 254.605,176.212 254.402,178.711 254.449 C 180.000 254.473,181.158 254.631,181.283 254.802 C 181.409 254.972,182.288 254.932,183.236 254.713 C 185.671 254.152,186.481 254.273,184.375 254.883 C 183.251 255.208,182.942 255.406,183.519 255.430 C 184.096 255.455,184.321 255.631,184.142 255.920 C 183.968 256.201,184.035 256.265,184.321 256.088 C 184.573 255.933,184.689 255.661,184.580 255.485 C 184.255 254.959,187.089 254.567,190.430 254.676 C 197.609 254.909,199.856 254.909,200.781 254.677 C 201.318 254.542,197.803 254.310,192.969 254.162 C 188.135 254.014,180.664 253.727,176.367 253.523 C 157.535 252.632,155.332 252.587,155.648 253.100 M175.391 254.297 C 175.068 254.505,174.102 254.652,173.242 254.623 L 171.680 254.570 173.438 254.297 C 174.404 254.147,175.371 254.000,175.586 253.971 C 175.801 253.942,175.713 254.089,175.391 254.297 M202.869 254.986 C 202.621 255.144,203.939 255.223,205.799 255.162 C 210.945 254.992,211.577 254.811,207.227 254.752 C 205.078 254.723,203.117 254.829,202.869 254.986 M189.556 255.358 C 190.150 255.448,191.029 255.446,191.509 255.353 C 191.990 255.260,191.504 255.187,190.430 255.190 C 189.355 255.193,188.962 255.269,189.556 255.358 M180.378 255.748 C 179.791 255.837,178.736 255.839,178.034 255.752 C 177.332 255.665,177.813 255.592,179.102 255.590 C 180.391 255.588,180.965 255.659,180.378 255.748 M187.988 256.129 C 188.364 256.227,188.979 256.227,189.355 256.129 C 189.731 256.030,189.424 255.950,188.672 255.950 C 187.920 255.950,187.612 256.030,187.988 256.129 M174.598 259.750 C 175.528 260.338,174.894 260.463,173.828 259.901 C 173.290 259.618,173.115 259.387,173.438 259.387 C 173.760 259.387,174.282 259.550,174.598 259.750 M180.864 264.832 C 180.391 265.132,180.427 265.193,181.060 265.165 C 181.487 265.146,182.188 265.256,182.617 265.409 C 183.387 265.685,183.388 265.680,182.640 265.071 C 181.762 264.355,181.644 264.339,180.864 264.832 M154.247 269.055 C 154.142 269.752,154.328 270.089,154.596 269.686 C 154.791 269.393,155.132 269.494,155.659 270.002 C 156.395 270.710,156.396 270.735,155.693 270.465 C 155.175 270.266,155.035 270.318,155.232 270.637 C 155.653 271.317,155.054 271.190,154.164 270.410 C 153.436 269.772,153.400 269.772,153.628 270.398 C 153.762 270.767,153.719 271.163,153.533 271.278 C 153.157 271.511,153.268 269.649,153.653 269.264 C 153.785 269.131,153.589 268.776,153.217 268.474 C 152.608 267.982,152.628 267.969,153.414 268.349 C 153.895 268.583,154.270 268.900,154.247 269.055 M159.505 272.498 C 159.505 272.800,159.662 273.047,159.854 273.047 C 160.045 273.047,160.095 273.221,159.964 273.433 C 159.824 273.659,160.017 273.727,160.429 273.596 C 161.058 273.397,161.052 273.440,160.375 273.992 C 159.439 274.754,160.074 274.795,161.074 274.037 C 161.913 273.402,161.606 272.574,160.666 272.935 C 160.268 273.087,160.125 273.023,160.285 272.764 C 160.427 272.535,160.309 272.258,160.024 272.148 C 159.739 272.039,159.505 272.196,159.505 272.498 M137.331 272.614 C 137.213 272.805,137.554 273.248,138.089 273.599 C 138.625 273.950,139.063 274.393,139.063 274.583 C 139.063 274.774,138.544 274.475,137.911 273.919 C 136.928 273.057,136.660 272.266,137.351 272.266 C 137.458 272.266,137.449 272.422,137.331 272.614 M140.430 274.414 C 140.430 274.958,140.203 275.391,139.918 275.391 C 139.637 275.391,139.478 275.259,139.565 275.098 C 139.652 274.937,139.833 274.497,139.967 274.121 C 140.301 273.182,140.430 273.264,140.430 274.414 M143.653 275.554 C 143.814 275.715,143.770 275.811,143.555 275.768 C 142.768 275.609,142.188 275.792,142.188 276.198 C 142.188 276.437,142.521 276.509,142.969 276.367 C 143.398 276.231,143.750 276.278,143.750 276.471 C 143.750 277.035,142.443 276.902,141.708 276.263 C 141.338 275.941,141.121 275.537,141.226 275.366 C 141.454 274.997,143.234 275.135,143.653 275.554 M146.094 278.474 C 146.094 278.933,144.951 279.361,144.490 279.076 C 144.291 278.953,144.229 278.689,144.353 278.489 C 144.640 278.024,146.094 278.012,146.094 278.474 M147.990 281.879 C 148.452 282.203,148.987 282.370,149.179 282.251 C 149.370 282.133,149.627 282.295,149.749 282.613 C 149.876 282.943,150.229 283.091,150.576 282.958 C 151.030 282.783,151.114 282.898,150.915 283.419 C 150.726 283.912,150.789 284.026,151.132 283.814 C 151.398 283.649,151.521 283.269,151.406 282.968 C 151.291 282.668,151.337 282.422,151.510 282.422 C 151.682 282.422,151.823 282.196,151.823 281.920 C 151.823 281.643,151.510 281.417,151.128 281.417 C 150.607 281.417,150.538 281.542,150.851 281.920 C 151.371 282.546,150.990 282.562,149.877 281.960 C 149.407 281.706,148.602 281.452,148.087 281.395 L 147.150 281.291 147.990 281.879 " stroke="none" fill="#f7f9fa" fill-rule="evenodd"/><path id="path2" d="M191.016 99.050 C 121.478 107.950,80.883 181.149,111.575 242.293 C 136.874 292.690,198.129 313.115,247.656 287.666 C 300.545 260.491,319.039 195.794,287.956 146.680 C 266.906 113.417,228.024 94.314,191.016 99.050 M214.844 99.852 C 291.438 109.539,328.923 200.156,281.019 259.826 C 272.746 270.132,252.380 286.823,249.928 285.307 C 249.677 285.152,249.596 285.210,249.740 285.442 C 250.075 285.984,242.763 289.607,242.102 289.226 C 241.827 289.067,241.736 289.085,241.900 289.265 C 242.484 289.909,234.223 293.001,226.904 294.878 C 170.449 309.352,113.167 272.307,103.148 214.844 C 91.879 150.204,148.890 91.510,214.844 99.852 M195.313 114.495 C 173.586 116.398,158.192 127.467,152.121 145.552 C 146.870 161.196,151.636 178.464,163.953 188.415 C 168.803 192.334,172.497 194.099,195.313 203.403 C 217.060 212.271,219.574 213.318,222.070 214.558 C 248.060 227.463,244.566 261.441,216.633 267.428 C 206.995 269.494,188.608 267.991,177.344 264.217 C 171.000 262.091,154.015 253.277,154.782 252.509 C 154.856 252.436,157.897 252.533,161.540 252.726 C 171.390 253.247,185.250 253.565,179.102 253.129 C 176.523 252.946,170.371 252.501,165.430 252.141 C 149.987 251.015,150.218 252.010,167.383 260.552 C 180.361 267.010,187.460 268.547,204.297 268.545 C 217.232 268.543,219.349 268.187,225.426 264.993 C 242.568 255.986,245.333 233.190,230.905 219.831 C 226.377 215.640,222.369 213.733,194.922 202.721 C 181.109 197.179,173.620 193.945,170.313 192.094 C 138.381 174.225,146.602 126.660,183.254 117.209 C 189.040 115.717,194.661 114.874,201.392 114.489 C 206.528 114.196,206.615 114.178,202.930 114.174 C 200.781 114.172,197.354 114.316,195.313 114.495 M211.328 115.012 C 261.468 120.964,296.316 170.053,284.418 217.969 C 281.755 228.692,276.955 239.265,271.332 246.791 C 269.437 249.326,269.160 248.975,269.784 244.831 C 272.054 229.749,267.157 213.775,257.075 203.378 C 248.941 194.990,243.132 191.732,219.141 182.106 C 190.592 170.651,189.411 170.116,186.157 167.142 C 179.133 160.722,179.875 150.478,187.695 145.895 C 191.311 143.777,197.466 143.150,208.594 143.767 C 211.709 143.940,218.037 144.288,222.656 144.539 C 227.275 144.791,234.855 145.305,239.499 145.681 C 251.904 146.685,252.421 146.474,246.776 142.707 C 220.928 125.458,186.574 123.442,172.412 138.343 C 160.569 150.803,163.583 171.350,178.702 181.219 C 183.193 184.151,186.245 185.544,203.125 192.371 C 229.403 202.997,234.460 205.306,240.154 209.272 C 262.759 225.019,257.503 264.741,231.155 277.283 C 206.594 288.974,169.994 282.385,147.282 262.184 C 114.607 233.119,108.251 188.307,131.791 152.960 C 135.381 147.569,136.192 146.770,135.786 149.023 C 131.791 171.240,140.589 191.860,158.951 203.312 C 161.874 205.136,170.200 209.155,176.758 211.909 C 180.195 213.352,184.150 215.027,185.547 215.632 C 186.943 216.236,193.447 218.871,200.000 221.488 C 214.522 227.287,217.090 228.518,219.758 230.956 C 227.159 237.720,225.239 249.113,216.073 252.819 C 213.904 253.696,213.618 253.710,198.828 253.682 C 181.989 253.650,181.919 253.729,198.311 254.264 C 210.779 254.672,213.751 254.464,217.048 252.954 C 226.078 248.820,227.644 237.407,220.124 230.546 C 217.402 228.062,215.739 227.219,205.078 222.916 C 196.534 219.467,193.524 218.235,182.222 213.556 C 155.710 202.582,147.490 196.344,140.422 181.836 C 134.962 170.626,133.586 154.739,137.304 145.839 C 138.277 143.511,137.748 143.912,135.056 147.544 C 117.141 171.707,112.593 197.763,121.555 224.896 C 135.392 266.789,181.820 292.319,223.242 280.813 C 257.414 271.321,266.767 226.280,238.498 207.344 C 233.634 204.086,233.625 204.082,205.469 192.583 C 175.142 180.197,169.904 176.359,166.791 164.249 C 157.946 129.841,203.730 116.796,244.531 142.098 C 246.787 143.497,248.890 144.880,249.205 145.172 C 249.928 145.844,251.032 145.866,237.098 144.929 C 208.559 143.009,196.813 142.632,192.748 143.505 C 180.572 146.119,176.712 158.482,185.394 167.059 C 188.493 170.120,191.021 171.359,208.789 178.517 C 238.874 190.639,241.888 192.000,248.000 196.219 C 265.622 208.385,274.318 232.410,267.854 251.074 C 266.976 253.608,267.563 253.108,270.730 248.623 C 299.051 208.517,290.171 157.697,249.805 128.865 C 238.933 121.100,222.485 115.138,210.547 114.635 L 206.836 114.478 211.328 115.012 " stroke="none" fill="#99a2aa" fill-rule="evenodd"/><path id="path3" d="M273.071 129.132 C 273.810 130.007,274.493 130.661,274.590 130.583 C 274.687 130.506,274.082 129.789,273.247 128.991 L 271.729 127.539 273.071 129.132 M116.922 197.656 C 116.922 199.053,116.993 199.624,117.079 198.926 C 117.166 198.228,117.166 197.085,117.079 196.387 C 116.993 195.688,116.922 196.260,116.922 197.656 M300.651 205.566 C 300.290 210.024,300.327 209.947,298.505 210.081 C 297.608 210.147,296.875 210.367,296.875 210.569 C 296.875 210.772,296.172 210.938,295.313 210.938 C 294.010 210.938,293.750 211.068,293.750 211.719 C 293.750 212.204,293.490 212.500,293.063 212.500 C 292.685 212.500,292.150 212.861,291.874 213.302 C 291.544 213.831,291.127 214.027,290.652 213.876 C 289.335 213.458,287.077 215.141,287.338 216.346 C 287.521 217.187,287.477 217.272,287.109 216.797 C 286.747 216.329,286.706 216.446,286.908 217.383 C 287.149 218.500,287.133 218.518,286.562 217.773 C 286.198 217.299,285.957 217.193,285.950 217.504 C 285.943 217.785,285.778 217.916,285.583 217.796 C 285.388 217.676,285.316 217.973,285.422 218.456 C 285.559 219.084,285.509 219.187,285.245 218.815 C 284.976 218.437,284.874 218.598,284.874 219.401 C 284.874 220.986,284.472 222.353,283.896 222.725 C 283.577 222.931,283.539 223.152,283.789 223.340 C 284.373 223.777,284.365 224.972,283.780 224.747 C 283.506 224.642,283.149 224.771,282.987 225.034 C 282.785 225.361,282.855 225.411,283.209 225.192 C 283.590 224.956,283.657 225.052,283.465 225.554 C 283.321 225.929,283.203 226.320,283.203 226.422 C 283.203 226.525,282.983 226.477,282.715 226.315 C 282.398 226.125,282.420 226.260,282.776 226.699 C 283.208 227.231,283.224 227.478,282.851 227.849 C 282.478 228.218,282.437 228.159,282.660 227.573 C 282.859 227.051,282.807 226.910,282.488 227.107 C 282.237 227.263,282.031 227.702,282.031 228.083 C 282.031 228.464,281.899 228.908,281.738 229.069 C 281.577 229.230,281.439 229.479,281.431 229.622 C 281.424 229.766,281.210 230.255,280.957 230.710 C 280.704 231.166,280.599 231.641,280.724 231.766 C 280.850 231.891,280.675 232.271,280.337 232.610 C 279.994 232.952,279.830 233.510,279.966 233.864 C 280.108 234.235,280.050 234.404,279.827 234.266 C 279.484 234.054,277.237 238.172,277.273 238.945 C 277.282 239.117,277.043 239.395,276.744 239.562 C 276.336 239.791,276.294 240.114,276.577 240.857 C 277.145 242.353,277.045 242.610,275.969 242.415 C 275.413 242.314,275.083 242.396,275.210 242.603 C 275.335 242.804,275.245 242.969,275.011 242.969 C 274.777 242.969,274.468 243.276,274.326 243.652 C 274.184 244.028,273.829 244.577,273.538 244.871 C 272.918 245.498,273.028 245.669,274.193 245.893 C 274.750 246.001,274.992 245.893,274.880 245.588 C 274.785 245.329,274.480 245.171,274.201 245.237 C 273.809 245.330,273.817 245.211,274.236 244.706 C 274.570 244.304,274.831 244.221,274.921 244.488 C 275.100 245.028,278.125 245.068,278.125 244.531 C 278.125 244.316,277.520 244.141,276.781 244.141 C 275.389 244.141,274.665 243.612,275.418 243.147 C 275.655 243.000,276.045 243.076,276.284 243.315 C 277.263 244.294,285.159 243.861,286.167 242.773 C 286.676 242.224,287.507 241.797,288.067 241.797 C 289.298 241.797,289.380 241.142,288.184 240.871 C 287.700 240.762,288.209 240.722,289.314 240.783 L 291.322 240.893 291.267 239.411 C 291.236 238.596,291.321 238.052,291.455 238.203 C 291.839 238.635,292.151 241.820,291.787 241.595 C 291.365 241.335,290.922 242.062,290.794 243.224 C 290.606 244.945,291.293 244.143,292.717 240.984 C 293.665 238.880,294.073 237.479,293.939 236.785 C 293.770 235.906,293.796 235.865,294.107 236.523 C 294.505 237.366,294.661 237.050,294.545 235.635 C 294.503 235.121,294.668 234.791,294.937 234.854 C 295.192 234.913,295.473 234.529,295.562 234.001 C 295.650 233.474,295.938 232.905,296.201 232.738 C 296.464 232.571,296.526 232.431,296.339 232.428 C 296.151 232.425,296.185 232.197,296.413 231.921 C 296.642 231.646,296.917 230.935,297.024 230.342 C 297.132 229.749,297.525 228.260,297.897 227.034 C 298.269 225.808,298.543 224.673,298.506 224.512 C 298.468 224.351,298.608 224.219,298.816 224.219 C 299.024 224.219,299.086 223.937,298.954 223.593 C 298.822 223.249,298.960 222.813,299.259 222.623 C 299.649 222.376,299.665 222.276,299.316 222.272 C 299.048 222.268,298.842 221.958,298.859 221.582 C 298.878 221.170,298.968 221.093,299.088 221.389 C 299.503 222.420,299.925 221.413,299.581 220.212 C 299.116 218.592,299.119 218.572,299.751 219.096 C 300.184 219.455,300.246 219.343,300.085 218.500 C 299.959 217.840,300.034 217.553,300.292 217.713 C 300.564 217.881,300.597 217.515,300.391 216.602 C 300.214 215.816,300.231 215.331,300.432 215.455 C 300.624 215.574,300.781 215.123,300.781 214.453 C 300.781 213.632,300.928 213.326,301.232 213.514 C 301.524 213.694,301.577 213.620,301.382 213.305 C 301.216 213.037,301.097 210.637,301.117 207.971 C 301.157 202.706,300.963 201.705,300.651 205.566 M265.739 228.007 C 265.699 229.405,264.168 231.202,262.988 231.236 C 262.720 231.244,262.500 231.426,262.500 231.641 C 262.500 231.855,261.896 232.031,261.157 232.031 C 260.210 232.031,259.435 232.377,258.531 233.203 C 257.825 233.848,257.059 234.375,256.827 234.375 C 256.596 234.375,256.196 234.959,255.938 235.672 C 255.381 237.211,255.349 237.620,255.807 237.337 C 256.121 237.143,255.745 239.911,255.241 241.504 C 255.123 241.881,254.934 242.935,254.822 243.848 C 254.433 247.019,254.111 248.508,253.024 252.148 C 251.937 255.789,251.915 255.957,252.569 255.707 C 252.900 255.579,253.125 255.734,253.125 256.090 C 253.125 256.418,252.951 256.579,252.737 256.447 C 252.524 256.315,252.041 256.401,251.663 256.638 C 251.082 257.003,251.120 257.029,251.912 256.810 C 252.732 256.584,252.780 256.625,252.303 257.141 C 252.003 257.465,251.635 257.656,251.484 257.565 C 251.334 257.474,251.017 257.800,250.779 258.290 C 250.366 259.142,250.373 259.148,250.955 258.421 C 251.344 257.935,251.563 257.851,251.563 258.186 C 251.563 258.820,253.182 257.131,254.158 255.478 C 254.542 254.828,255.170 254.196,255.553 254.075 C 256.399 253.806,256.479 253.125,255.664 253.125 C 255.342 253.125,255.078 252.943,255.078 252.721 C 255.078 252.442,255.313 252.442,255.834 252.721 C 256.905 253.294,258.473 253.222,258.716 252.588 C 258.856 252.223,259.989 251.962,262.239 251.774 C 265.366 251.514,265.571 251.441,265.806 250.506 C 266.045 249.553,266.078 249.543,266.641 250.245 C 267.204 250.947,267.219 250.942,266.997 250.131 C 266.869 249.665,266.938 249.178,267.149 249.047 C 267.373 248.909,267.491 249.262,267.432 249.893 C 267.377 250.489,267.124 250.933,266.869 250.879 C 266.198 250.737,266.300 251.438,266.988 251.702 C 267.390 251.856,267.642 251.598,267.801 250.865 C 267.928 250.282,268.196 249.365,268.396 248.828 C 268.768 247.829,269.011 245.988,269.274 242.188 C 269.356 241.006,269.548 239.418,269.700 238.659 C 269.867 237.826,269.746 236.281,269.394 234.756 C 268.985 232.985,268.933 232.087,269.219 231.742 C 269.495 231.409,269.497 231.250,269.225 231.250 C 269.002 231.250,268.924 230.860,269.050 230.371 C 269.236 229.648,269.178 229.572,268.720 229.942 C 268.184 230.377,267.131 230.607,266.113 230.514 C 265.300 230.439,265.567 229.688,266.406 229.688 C 267.306 229.688,267.454 229.092,266.632 228.777 C 266.305 228.651,266.158 228.250,266.275 227.802 C 266.385 227.384,266.318 226.945,266.126 226.826 C 265.935 226.708,265.761 227.240,265.739 228.007 M255.619 233.376 C 255.500 233.685,255.472 234.257,255.556 234.645 C 255.651 235.086,255.785 234.875,255.912 234.082 C 256.124 232.752,255.986 232.418,255.619 233.376 M237.109 235.582 C 237.109 235.816,236.714 236.354,236.230 236.777 L 235.352 237.546 236.542 237.407 C 237.585 237.285,237.740 237.392,237.783 238.263 C 237.810 238.810,237.743 239.038,237.634 238.770 C 237.398 238.191,234.375 238.100,234.375 238.672 C 234.375 238.887,233.672 239.063,232.813 239.063 C 231.510 239.063,231.250 239.193,231.250 239.844 C 231.250 240.492,230.990 240.625,229.720 240.625 C 228.862 240.625,228.104 240.839,227.993 241.113 C 227.879 241.397,227.783 241.305,227.765 240.895 C 227.703 239.474,226.952 240.720,226.913 242.308 L 226.873 243.945 226.540 242.578 C 226.357 241.826,226.294 240.918,226.400 240.560 C 226.507 240.202,226.434 239.810,226.238 239.689 C 226.042 239.568,225.790 240.278,225.678 241.267 C 225.567 242.256,225.258 243.200,224.992 243.364 C 224.727 243.528,224.642 243.878,224.805 244.141 C 224.970 244.409,224.864 244.768,224.562 244.960 C 224.172 245.206,224.158 245.302,224.512 245.307 C 224.780 245.310,225.000 245.499,225.000 245.726 C 225.000 245.954,224.824 246.031,224.609 245.898 C 224.049 245.552,224.127 246.621,224.707 247.235 C 225.110 247.661,225.043 247.674,224.325 247.304 C 223.595 246.929,223.492 246.953,223.683 247.452 C 223.834 247.843,223.681 248.047,223.236 248.047 C 222.654 248.047,222.633 248.141,223.084 248.730 C 223.372 249.106,223.458 249.288,223.276 249.135 C 222.787 248.724,221.392 249.587,221.613 250.163 C 221.717 250.435,221.627 250.905,221.411 251.207 C 221.102 251.643,221.066 251.616,221.240 251.074 C 221.504 250.253,220.978 250.175,220.342 250.941 C 219.980 251.377,220.058 251.614,220.715 252.074 C 221.545 252.655,221.544 252.655,220.576 252.597 C 220.043 252.565,219.688 252.407,219.787 252.246 C 219.887 252.085,219.782 251.953,219.554 251.953 C 219.327 251.953,219.141 252.129,219.141 252.344 C 219.141 252.559,218.818 252.734,218.424 252.734 C 218.031 252.734,217.576 252.866,217.415 253.027 C 217.254 253.188,217.005 253.330,216.862 253.342 C 215.693 253.441,214.063 254.045,214.063 254.379 C 214.063 254.628,213.541 254.705,212.741 254.575 C 212.015 254.457,211.268 254.508,211.081 254.687 C 210.895 254.867,208.869 255.072,206.579 255.144 C 204.289 255.215,202.614 255.151,202.856 255.002 C 203.746 254.454,202.718 254.207,201.089 254.578 C 199.525 254.934,194.051 254.917,187.695 254.536 C 186.191 254.446,184.185 254.538,183.236 254.741 C 182.288 254.944,181.409 254.971,181.283 254.801 C 181.157 254.631,180.000 254.473,178.711 254.449 C 176.212 254.402,176.765 254.605,181.055 255.306 C 182.931 255.613,182.030 256.177,179.590 256.223 L 178.125 256.250 178.115 258.301 C 178.104 260.753,176.047 262.434,174.628 261.149 C 173.879 260.472,173.264 260.341,173.633 260.938 C 173.766 261.152,173.703 261.328,173.493 261.328 C 173.283 261.328,173.043 261.121,172.959 260.868 C 172.870 260.603,172.594 260.539,172.306 260.717 C 171.940 260.944,172.050 261.151,172.719 261.494 C 173.357 261.821,173.723 261.837,173.933 261.547 C 174.129 261.277,174.373 261.370,174.636 261.816 C 174.858 262.192,175.315 262.500,175.653 262.500 C 176.102 262.500,176.158 262.632,175.861 262.990 C 175.549 263.366,175.743 263.480,176.692 263.478 C 177.412 263.477,177.894 263.664,177.845 263.925 C 177.798 264.177,178.066 264.293,178.459 264.191 C 178.842 264.090,179.376 264.274,179.646 264.598 C 179.915 264.922,180.368 265.099,180.653 264.989 C 180.938 264.880,181.287 264.978,181.429 265.208 C 181.571 265.437,181.886 265.625,182.129 265.625 C 182.372 265.625,182.230 265.367,181.813 265.051 C 181.386 264.728,181.268 264.473,181.543 264.466 C 181.812 264.459,182.396 264.818,182.843 265.265 C 183.289 265.711,183.913 265.977,184.230 265.855 C 184.547 265.733,184.705 265.797,184.582 265.997 C 184.450 266.211,184.949 266.264,185.794 266.127 C 186.828 265.959,187.153 266.020,186.952 266.345 C 186.662 266.815,187.315 266.919,190.547 266.921 C 191.591 266.922,192.034 267.045,191.719 267.248 C 191.392 267.459,191.697 267.580,192.578 267.590 C 193.330 267.598,194.912 267.673,196.094 267.757 C 202.936 268.241,210.304 268.387,209.792 268.030 C 209.405 267.760,209.961 267.705,211.594 267.853 C 213.097 267.990,214.223 267.899,214.693 267.605 C 215.306 267.219,215.119 267.170,213.574 267.312 C 212.554 267.406,211.719 267.328,211.719 267.140 C 211.719 266.951,212.148 266.797,212.672 266.797 C 213.197 266.797,213.746 266.602,213.893 266.364 C 214.075 266.070,213.880 266.021,213.281 266.211 C 212.660 266.408,212.485 266.356,212.683 266.035 C 212.866 265.740,213.629 265.654,214.857 265.791 C 216.502 265.974,216.781 265.900,216.995 265.227 C 217.459 263.762,218.750 263.461,218.750 264.818 C 218.750 265.768,218.880 265.945,219.434 265.746 C 219.810 265.611,219.981 265.650,219.814 265.833 C 219.535 266.140,217.307 266.450,215.435 266.444 C 214.799 266.441,214.763 266.507,215.239 266.808 C 216.009 267.295,217.188 267.288,217.188 266.797 C 217.188 266.582,217.374 266.406,217.601 266.406 C 217.829 266.406,217.911 266.574,217.784 266.779 C 217.657 266.985,218.424 266.894,219.489 266.578 C 221.711 265.918,224.485 264.706,223.145 264.981 C 222.661 265.080,222.266 265.041,222.266 264.895 C 222.266 264.748,221.563 264.695,220.703 264.777 L 219.141 264.926 220.306 263.678 C 221.390 262.519,221.517 262.477,222.117 263.077 C 222.573 263.533,222.884 263.600,223.178 263.306 C 223.703 262.781,225.267 262.765,225.586 263.281 C 225.718 263.495,225.509 263.627,225.120 263.574 C 224.732 263.520,224.414 263.652,224.414 263.867 C 224.414 264.082,224.739 264.213,225.137 264.158 C 225.947 264.046,228.076 262.500,227.419 262.500 C 227.188 262.500,226.890 262.676,226.757 262.892 C 226.420 263.437,225.000 262.636,225.000 261.900 C 225.000 261.481,225.480 261.328,226.800 261.328 C 228.266 261.328,228.556 261.216,228.367 260.722 C 228.239 260.388,228.288 260.211,228.476 260.327 C 228.664 260.443,229.034 260.278,229.298 259.959 C 229.606 259.588,230.183 259.451,230.905 259.578 C 231.524 259.687,232.031 259.639,232.031 259.470 C 232.031 259.301,232.822 258.301,233.789 257.248 C 234.756 256.195,235.547 255.100,235.547 254.815 C 235.547 254.530,235.696 254.297,235.879 254.297 C 236.243 254.297,237.624 251.186,237.506 250.630 C 237.466 250.439,237.615 250.171,237.836 250.034 C 238.347 249.718,238.605 248.244,238.866 244.164 C 238.979 242.382,239.181 240.750,239.313 240.536 C 239.445 240.322,239.371 240.034,239.147 239.896 C 238.891 239.738,238.852 239.040,239.043 237.997 C 239.209 237.091,239.206 236.435,239.036 236.540 C 238.866 236.645,238.652 236.420,238.559 236.041 C 238.466 235.662,238.439 235.967,238.499 236.719 L 238.608 238.086 238.180 236.621 C 237.784 235.262,237.109 234.607,237.109 235.582 M292.820 239.513 C 292.440 240.597,292.218 240.900,292.206 240.350 C 292.186 239.439,292.985 237.386,293.255 237.656 C 293.343 237.744,293.147 238.579,292.820 239.513 M288.287 244.043 C 288.308 245.047,288.963 245.288,289.640 244.540 C 290.034 244.106,290.167 243.750,289.937 243.750 C 289.707 243.750,289.430 243.970,289.321 244.238 C 289.164 244.629,289.118 244.629,289.093 244.238 C 289.061 243.726,288.277 243.536,288.287 244.043 M289.911 245.351 C 289.170 246.537,289.616 246.696,290.386 245.520 C 290.742 244.976,290.896 244.531,290.728 244.531 C 290.560 244.531,290.192 244.900,289.911 245.351 M287.717 249.423 C 287.358 250.180,286.901 250.698,286.701 250.575 C 286.501 250.451,286.444 250.628,286.574 250.968 C 286.822 251.613,287.848 250.722,287.878 249.835 C 287.885 249.638,288.182 249.154,288.537 248.761 C 288.893 248.368,289.001 248.047,288.777 248.047 C 288.553 248.047,288.076 248.666,287.717 249.423 M173.438 254.297 L 171.680 254.570 173.242 254.623 C 174.102 254.652,175.068 254.505,175.391 254.297 C 175.713 254.089,175.801 253.942,175.586 253.971 C 175.371 254.000,174.404 254.147,173.438 254.297 M185.248 254.964 C 184.762 255.057,184.457 255.285,184.571 255.470 C 184.685 255.654,184.573 255.933,184.321 256.088 C 184.035 256.265,183.968 256.201,184.142 255.920 C 184.321 255.631,184.096 255.455,183.519 255.430 C 182.331 255.379,184.084 254.757,185.352 254.780 C 185.991 254.791,185.972 254.825,185.248 254.964 M191.509 255.353 C 191.029 255.446,190.150 255.448,189.556 255.358 C 188.962 255.269,189.355 255.193,190.430 255.190 C 191.504 255.187,191.990 255.260,191.509 255.353 M178.034 255.752 C 178.736 255.839,179.791 255.837,180.378 255.748 C 180.965 255.659,180.391 255.588,179.102 255.590 C 177.813 255.592,177.332 255.665,178.034 255.752 M189.355 256.129 C 188.979 256.227,188.364 256.227,187.988 256.129 C 187.612 256.030,187.920 255.950,188.672 255.950 C 189.424 255.950,189.731 256.030,189.355 256.129 M233.357 257.161 C 233.254 257.412,232.768 257.910,232.278 258.268 C 231.237 259.027,231.028 258.044,231.985 256.892 C 232.536 256.228,233.650 256.447,233.357 257.161 M173.828 259.901 C 174.365 260.184,174.887 260.348,174.989 260.265 C 175.263 260.039,174.111 259.387,173.438 259.387 C 173.115 259.387,173.290 259.618,173.828 259.901 M249.687 260.338 C 249.354 261.068,249.363 261.366,249.722 261.572 C 249.982 261.722,250.063 261.698,249.901 261.520 C 249.739 261.341,249.875 260.786,250.203 260.285 C 250.531 259.785,250.648 259.375,250.462 259.375 C 250.277 259.375,249.928 259.808,249.687 260.338 M230.032 260.124 C 230.006 260.249,230.004 260.477,230.027 260.630 C 230.050 260.784,229.777 260.797,229.420 260.660 C 228.931 260.473,228.832 260.571,229.020 261.060 C 229.164 261.436,229.090 261.670,228.843 261.616 C 228.609 261.565,228.332 261.760,228.226 262.050 C 227.958 262.787,229.224 262.077,230.378 260.843 C 231.050 260.125,231.121 259.896,230.671 259.896 C 230.345 259.896,230.057 259.998,230.032 260.124 M144.162 260.449 C 144.174 260.610,144.745 261.170,145.432 261.694 L 146.680 262.645 145.532 261.401 C 144.339 260.106,144.126 259.958,144.162 260.449 M147.909 263.587 C 147.981 263.702,147.841 264.035,147.598 264.328 C 147.244 264.755,147.297 264.807,147.860 264.591 C 148.325 264.413,148.475 264.467,148.300 264.750 C 148.154 264.987,148.204 265.285,148.411 265.413 C 148.872 265.699,148.595 264.037,148.117 263.652 C 147.931 263.502,147.837 263.473,147.909 263.587 M150.196 266.844 C 150.297 268.976,150.279 268.938,150.939 268.391 C 151.359 268.042,151.534 268.053,151.690 268.441 C 151.842 268.817,151.976 268.830,152.219 268.490 C 152.464 268.147,152.710 268.156,153.219 268.529 C 153.590 268.800,153.785 269.131,153.653 269.264 C 153.268 269.649,153.157 271.511,153.533 271.278 C 153.719 271.163,153.762 270.767,153.628 270.398 C 153.400 269.772,153.436 269.772,154.164 270.410 C 155.190 271.309,155.458 271.273,155.263 270.260 C 155.079 269.301,154.688 268.778,154.688 269.489 C 154.688 269.753,154.509 269.858,154.291 269.723 C 154.072 269.588,153.995 269.312,154.120 269.111 C 154.244 268.909,154.073 268.639,153.738 268.511 C 153.403 268.383,153.211 268.146,153.311 267.984 C 153.410 267.823,153.014 267.710,152.430 267.732 C 151.845 267.755,151.398 267.593,151.435 267.373 C 151.473 267.153,151.191 266.559,150.809 266.053 L 150.115 265.132 150.196 266.844 M210.156 267.196 C 208.876 267.595,205.078 267.661,205.078 267.285 C 205.079 267.124,206.441 266.970,208.106 266.942 C 210.057 266.910,210.786 267.000,210.156 267.196 M133.785 269.147 C 133.650 269.365,133.405 269.461,133.241 269.359 C 133.077 269.258,132.943 269.428,132.943 269.738 C 132.943 270.124,133.086 270.181,133.402 269.919 C 133.654 269.709,133.947 269.624,134.053 269.730 C 134.158 269.836,134.245 269.658,134.245 269.336 C 134.245 268.649,134.124 268.599,133.785 269.147 M156.081 270.746 C 156.324 271.139,155.170 271.495,154.492 271.235 C 154.170 271.111,153.906 271.205,153.906 271.443 C 153.906 271.694,153.180 271.875,152.175 271.875 C 150.786 271.875,150.394 272.030,150.195 272.656 C 150.003 273.263,149.604 273.438,148.411 273.438 C 147.135 273.438,146.875 273.570,146.875 274.219 C 146.875 274.870,147.135 275.000,148.438 275.000 C 149.297 275.000,150.000 275.176,150.000 275.391 C 150.000 275.605,149.297 275.781,148.438 275.781 C 146.745 275.781,146.841 275.594,146.711 279.165 C 146.694 279.629,146.558 280.131,146.410 280.280 C 145.994 280.700,146.996 281.570,147.621 281.330 C 147.994 281.187,148.075 281.279,147.869 281.613 C 147.633 281.994,147.734 282.017,148.298 281.715 C 148.830 281.430,149.243 281.474,149.787 281.871 C 150.729 282.560,151.408 282.591,150.851 281.920 C 150.535 281.540,150.619 281.417,151.194 281.417 C 151.611 281.417,151.953 281.643,151.953 281.920 C 151.953 282.196,151.821 282.422,151.660 282.422 C 151.499 282.422,151.341 282.868,151.310 283.413 C 151.263 284.227,151.352 284.322,151.808 283.943 C 152.113 283.690,152.476 283.595,152.614 283.733 C 152.752 283.871,152.660 283.984,152.409 283.984 C 152.158 283.984,151.953 284.179,151.953 284.417 C 151.953 284.655,152.189 284.759,152.477 284.648 C 152.765 284.538,153.248 284.623,153.551 284.839 C 153.971 285.137,153.916 285.175,153.320 284.997 C 152.555 284.769,152.555 284.776,153.288 285.344 C 153.852 285.781,154.168 285.816,154.567 285.485 C 154.859 285.243,155.210 285.158,155.348 285.296 C 155.486 285.434,155.387 285.547,155.128 285.547 C 154.776 285.547,154.784 285.684,155.160 286.092 C 155.437 286.392,155.808 286.550,155.983 286.443 C 156.158 286.337,156.567 286.575,156.891 286.973 C 157.215 287.370,157.353 287.432,157.198 287.109 C 157.043 286.787,157.304 286.923,157.778 287.411 C 158.252 287.899,158.806 288.196,159.008 288.072 C 159.210 287.947,159.375 288.031,159.375 288.258 C 159.375 288.486,159.561 288.672,159.789 288.672 C 160.016 288.672,160.095 288.498,159.964 288.286 C 159.827 288.065,159.983 287.999,160.329 288.131 C 160.661 288.259,160.847 288.502,160.742 288.672 C 160.637 288.842,160.844 289.093,161.201 289.230 C 161.559 289.367,161.995 289.254,162.170 288.978 C 162.401 288.614,162.490 288.673,162.494 289.193 C 162.497 289.588,162.717 289.836,162.985 289.747 C 163.251 289.658,163.691 289.807,163.961 290.077 C 164.868 290.984,172.656 293.593,172.656 292.989 C 172.656 292.531,171.507 292.139,170.961 292.411 C 170.712 292.535,170.833 292.371,171.231 292.047 C 171.679 291.682,171.836 291.263,171.644 290.944 C 171.403 290.543,171.459 290.528,171.898 290.874 C 172.929 291.687,175.590 291.912,176.153 291.234 C 176.576 290.723,176.552 290.625,176.001 290.625 C 174.949 290.625,175.720 289.842,177.539 289.063 C 178.459 288.668,179.345 288.128,179.510 287.863 C 179.710 287.537,179.647 287.479,179.317 287.683 C 179.035 287.857,179.102 287.564,179.475 286.995 C 180.301 285.734,181.161 285.390,181.333 286.252 C 181.434 286.760,181.886 286.482,183.275 285.059 C 184.272 284.038,185.410 283.206,185.805 283.209 C 186.368 283.214,186.406 283.289,185.983 283.557 C 185.145 284.088,187.400 284.400,189.258 284.011 C 190.117 283.831,190.469 283.661,190.039 283.633 C 189.609 283.606,188.818 283.482,188.281 283.359 C 187.515 283.184,187.431 283.226,187.891 283.554 C 188.406 283.922,188.402 283.973,187.858 283.978 C 186.954 283.987,186.662 283.546,187.168 282.937 C 187.726 282.265,187.637 282.195,185.801 281.863 C 184.626 281.650,184.355 281.703,184.561 282.104 C 184.705 282.386,184.549 282.278,184.213 281.864 C 183.877 281.450,183.484 281.229,183.341 281.373 C 183.197 281.516,182.840 281.435,182.546 281.191 C 182.253 280.947,181.920 280.841,181.807 280.954 C 181.693 281.067,180.731 280.829,179.668 280.425 C 178.604 280.021,177.734 279.799,177.734 279.932 C 177.734 280.065,177.506 279.984,177.226 279.752 C 176.946 279.520,176.370 279.420,175.945 279.532 C 175.488 279.651,174.794 279.405,174.245 278.929 C 173.735 278.487,173.023 278.125,172.662 278.125 C 172.301 278.125,171.883 278.003,171.735 277.855 C 171.586 277.706,171.073 277.525,170.595 277.453 C 170.118 277.380,169.670 277.156,169.600 276.954 C 169.531 276.752,168.872 276.474,168.136 276.336 C 167.399 276.198,166.797 275.918,166.797 275.715 C 166.797 275.511,166.621 275.453,166.406 275.586 C 166.191 275.719,166.016 275.641,166.016 275.414 C 166.016 275.186,165.664 275.000,165.234 275.000 C 164.805 275.000,164.453 274.814,164.453 274.586 C 164.453 274.359,164.277 274.281,164.063 274.414 C 163.848 274.547,163.672 274.463,163.672 274.228 C 163.672 273.931,163.404 273.943,162.793 274.269 C 161.968 274.709,161.950 274.693,162.500 274.012 C 162.838 273.595,162.879 273.412,162.598 273.581 C 162.325 273.744,162.109 273.684,162.109 273.445 C 162.109 273.209,161.725 273.375,161.254 273.813 C 160.784 274.251,160.244 274.609,160.054 274.609 C 159.522 274.609,159.894 273.320,160.459 273.206 C 160.733 273.151,160.777 273.195,160.557 273.304 C 160.336 273.413,160.156 273.685,160.156 273.909 C 160.156 274.155,160.385 274.125,160.738 273.832 C 161.499 273.200,161.083 272.557,160.114 272.865 C 159.697 272.997,159.381 272.961,159.411 272.783 C 159.555 271.956,159.319 271.576,158.691 271.625 C 158.315 271.655,158.050 271.466,158.101 271.205 C 158.158 270.913,157.946 270.826,157.548 270.979 C 157.182 271.119,157.003 271.065,157.134 270.853 C 157.261 270.648,157.039 270.480,156.641 270.480 C 156.242 270.480,155.991 270.600,156.081 270.746 M136.925 272.639 C 136.798 272.844,137.139 273.304,137.683 273.661 C 138.227 274.017,138.672 274.486,138.672 274.702 C 138.672 274.921,138.368 274.868,137.988 274.582 C 137.549 274.252,137.592 274.380,138.111 274.939 C 139.092 275.998,140.414 275.648,140.461 274.316 C 140.501 273.173,140.304 273.204,139.844 274.414 C 139.640 274.951,139.298 275.391,139.084 275.391 C 138.871 275.391,138.793 275.140,138.910 274.834 C 139.036 274.507,138.709 274.005,138.120 273.619 C 137.568 273.257,137.213 272.805,137.331 272.614 C 137.449 272.422,137.458 272.266,137.351 272.266 C 137.243 272.266,137.052 272.434,136.925 272.639 M141.226 275.366 C 141.121 275.537,141.338 275.941,141.708 276.263 C 142.443 276.902,143.750 277.035,143.750 276.471 C 143.750 276.278,143.398 276.231,142.969 276.367 C 142.521 276.509,142.188 276.437,142.188 276.198 C 142.188 275.792,142.768 275.609,143.555 275.768 C 143.770 275.811,143.814 275.715,143.653 275.554 C 143.234 275.135,141.454 274.997,141.226 275.366 M142.839 277.604 C 142.465 277.977,142.517 278.516,142.927 278.516 C 143.119 278.516,143.377 278.252,143.501 277.930 C 143.729 277.334,143.313 277.130,142.839 277.604 M144.501 278.223 C 144.243 279.066,144.292 279.735,144.626 279.942 C 144.872 280.093,144.928 280.014,144.764 279.748 C 144.608 279.495,144.710 279.294,144.996 279.291 C 145.372 279.287,145.352 279.176,144.922 278.875 C 144.463 278.554,144.527 278.518,145.215 278.712 C 145.732 278.857,146.094 278.787,146.094 278.542 C 146.094 278.200,144.600 277.900,144.501 278.223 M148.980 282.173 C 149.116 283.143,150.324 283.817,150.897 283.244 C 151.293 282.848,150.782 282.599,150.212 282.910 C 150.114 282.964,149.774 282.656,149.456 282.227 C 148.919 281.501,148.885 281.497,148.980 282.173 M188.477 282.813 C 188.609 283.027,189.191 283.200,189.769 283.197 C 190.591 283.192,190.693 283.109,190.234 282.813 C 189.463 282.314,188.168 282.314,188.477 282.813 M191.535 283.095 C 191.908 283.699,193.427 283.891,195.357 283.578 L 197.070 283.301 195.117 283.247 C 194.043 283.217,192.741 283.079,192.224 282.941 C 191.620 282.779,191.374 282.834,191.535 283.095 M209.082 283.472 C 209.458 283.571,210.073 283.571,210.449 283.472 C 210.825 283.374,210.518 283.294,209.766 283.294 C 209.014 283.294,208.706 283.374,209.082 283.472 M198.722 283.876 C 199.415 283.962,200.646 283.963,201.456 283.879 C 202.267 283.794,201.699 283.724,200.195 283.722 C 198.691 283.720,198.028 283.789,198.722 283.876 M184.375 284.766 C 184.375 285.630,184.669 285.727,185.547 285.150 C 186.068 284.808,186.068 284.723,185.547 284.381 C 184.669 283.804,184.375 283.901,184.375 284.766 M174.893 291.253 C 174.799 291.346,174.302 291.239,173.787 291.013 C 172.898 290.623,172.895 290.611,173.731 290.773 C 174.215 290.866,174.512 290.783,174.392 290.589 C 174.271 290.394,174.315 290.015,174.488 289.746 C 174.706 289.410,174.844 289.542,174.933 290.170 C 175.005 290.672,174.987 291.159,174.893 291.253 M171.875 291.947 C 171.875 292.029,172.314 292.180,172.852 292.283 C 173.389 292.386,173.828 292.318,173.828 292.133 C 173.828 291.948,173.389 291.797,172.852 291.797 C 172.314 291.797,171.875 291.864,171.875 291.947 M174.219 292.936 C 174.219 293.226,173.968 293.347,173.633 293.218 C 173.311 293.094,173.047 293.121,173.047 293.277 C 173.047 293.820,179.738 295.324,180.416 294.933 C 180.917 294.644,180.802 294.570,179.883 294.589 C 178.094 294.627,175.254 293.796,174.707 293.074 C 174.378 292.639,174.219 292.594,174.219 292.936 " stroke="none" fill="#d9e0e6" fill-rule="evenodd"/><path id="path4" d="M101.669 198.438 C 101.669 199.404,101.745 199.800,101.838 199.316 C 101.931 198.833,101.931 198.042,101.838 197.559 C 101.745 197.075,101.669 197.471,101.669 198.438 M292.653 238.562 C 292.421 239.159,292.154 240.000,292.059 240.430 C 291.965 240.859,291.867 240.562,291.842 239.769 C 291.817 238.976,291.665 238.246,291.504 238.146 C 291.343 238.046,291.236 238.623,291.267 239.429 L 291.322 240.893 289.314 240.783 C 288.209 240.722,287.700 240.762,288.184 240.871 C 289.380 241.142,289.298 241.797,288.067 241.797 C 287.507 241.797,286.676 242.224,286.167 242.773 C 285.205 243.811,275.347 244.378,275.977 243.359 C 276.109 243.145,276.021 242.969,275.781 242.969 C 275.541 242.969,275.448 242.801,275.575 242.595 C 275.702 242.390,276.064 242.321,276.380 242.442 C 276.758 242.587,276.951 242.415,276.947 241.936 C 276.943 241.378,276.864 241.333,276.604 241.743 C 276.319 242.193,276.233 242.193,276.055 241.743 C 275.889 241.327,275.836 241.322,275.812 241.722 C 275.795 242.006,275.581 242.110,275.330 241.955 C 275.051 241.782,274.985 241.848,275.158 242.127 C 275.314 242.380,275.212 242.581,274.925 242.584 C 274.512 242.589,274.514 242.653,274.936 242.921 C 275.223 243.103,275.398 243.408,275.326 243.598 C 275.254 243.789,275.854 244.000,276.660 244.067 C 278.619 244.229,278.540 244.922,276.563 244.922 C 275.703 244.922,275.000 244.736,275.000 244.508 C 275.000 244.281,274.839 244.194,274.643 244.315 C 274.446 244.437,274.200 244.315,274.097 244.045 C 273.993 243.776,273.926 243.938,273.949 244.407 C 273.972 244.875,274.169 245.227,274.388 245.188 C 274.607 245.149,274.850 245.536,274.927 246.048 C 275.051 246.870,274.945 246.956,274.023 246.779 C 273.205 246.623,272.688 246.870,271.645 247.912 C 270.114 249.444,269.997 249.762,271.094 249.414 C 271.737 249.210,271.875 249.344,271.875 250.169 C 271.875 250.721,271.687 251.172,271.458 251.172 C 271.211 251.172,271.148 250.834,271.305 250.342 C 271.482 249.783,271.427 249.599,271.136 249.779 C 270.898 249.926,270.703 250.299,270.703 250.609 C 270.703 250.919,270.396 251.175,270.020 251.178 C 269.487 251.183,269.453 251.258,269.866 251.520 C 270.241 251.758,270.268 251.934,269.957 252.127 C 269.716 252.276,269.614 252.553,269.732 252.743 C 269.849 252.932,269.166 253.052,268.214 253.008 C 267.261 252.965,266.555 252.811,266.644 252.666 C 266.734 252.521,266.497 252.308,266.118 252.192 C 265.739 252.076,265.946 252.045,266.578 252.122 L 267.727 252.264 266.852 251.604 C 266.371 251.241,266.039 250.688,266.115 250.375 C 266.190 250.061,266.082 250.187,265.874 250.654 C 265.544 251.392,265.066 251.539,262.209 251.777 C 259.982 251.962,258.856 252.224,258.716 252.588 C 258.473 253.222,256.905 253.294,255.834 252.721 C 255.313 252.442,255.078 252.442,255.078 252.721 C 255.078 252.943,255.342 253.125,255.664 253.125 C 256.479 253.125,256.399 253.806,255.553 254.075 C 255.170 254.196,254.531 254.848,254.132 255.522 C 253.734 256.197,253.080 257.076,252.680 257.476 C 252.097 258.059,252.069 258.203,252.539 258.203 C 252.861 258.203,253.111 258.511,253.094 258.887 C 253.076 259.295,252.984 259.374,252.866 259.082 C 252.758 258.813,252.420 258.594,252.116 258.594 C 251.812 258.594,251.555 258.374,251.547 258.105 C 251.538 257.837,251.168 258.320,250.724 259.180 C 249.878 260.816,249.493 263.554,250.060 263.904 C 250.242 264.017,250.391 263.861,250.391 263.559 C 250.391 263.135,251.384 262.953,254.759 262.760 C 257.162 262.623,259.227 262.372,259.349 262.203 C 259.888 261.456,261.837 260.509,262.395 260.723 C 263.105 260.995,265.618 259.414,265.622 258.691 C 265.624 258.383,266.199 258.203,267.188 258.203 C 268.461 258.203,268.750 258.066,268.750 257.463 C 268.750 256.820,269.165 256.685,271.875 256.445 C 273.594 256.293,275.000 256.011,275.000 255.819 C 275.000 255.626,275.703 255.469,276.563 255.469 C 277.422 255.469,278.125 255.293,278.125 255.078 C 278.125 254.863,277.422 254.688,276.563 254.688 C 274.028 254.688,274.777 254.036,277.637 253.754 C 279.087 253.611,280.889 253.383,281.641 253.248 C 282.851 253.031,282.950 253.073,282.501 253.615 C 282.194 253.985,282.142 254.319,282.370 254.460 C 282.576 254.588,282.813 254.490,282.895 254.243 C 283.005 253.914,283.257 253.907,283.840 254.220 C 284.458 254.550,284.635 254.527,284.635 254.118 C 284.635 253.805,284.384 253.679,284.017 253.808 C 283.639 253.942,283.797 253.586,284.425 252.892 C 284.989 252.268,285.651 251.369,285.896 250.893 C 286.167 250.366,286.566 250.116,286.920 250.252 C 287.290 250.394,287.500 250.238,287.500 249.823 C 287.500 249.465,287.664 249.274,287.864 249.397 C 288.064 249.521,288.330 249.456,288.456 249.252 C 288.582 249.049,288.479 248.755,288.227 248.599 C 287.922 248.411,287.875 248.487,288.086 248.828 C 288.308 249.188,288.250 249.246,287.892 249.024 C 287.492 248.777,287.534 248.598,288.084 248.195 C 288.471 247.912,288.941 247.777,289.130 247.893 C 289.318 248.010,289.447 247.960,289.417 247.783 C 289.386 247.606,289.402 247.285,289.452 247.070 C 289.502 246.855,289.567 246.416,289.596 246.094 C 289.625 245.771,289.881 245.556,290.166 245.615 C 290.450 245.674,290.567 245.535,290.425 245.305 C 290.283 245.075,290.446 244.462,290.787 243.942 C 291.127 243.422,291.404 242.858,291.400 242.690 C 291.397 242.521,291.224 242.646,291.016 242.969 C 290.807 243.291,290.634 243.369,290.631 243.141 C 290.628 242.914,290.902 242.386,291.240 241.969 C 291.578 241.552,291.727 241.458,291.570 241.760 C 291.397 242.094,291.443 242.211,291.690 242.058 C 291.912 241.921,292.388 240.908,292.749 239.807 C 293.442 237.687,293.367 236.718,292.653 238.562 M289.363 244.533 C 289.755 245.161,289.755 245.296,289.360 245.216 C 288.833 245.110,288.297 244.524,288.287 244.043 C 288.276 243.481,288.878 243.756,289.363 244.533 M288.803 247.291 C 288.619 247.474,288.208 247.439,287.887 247.213 C 287.400 246.869,287.417 246.837,287.988 247.021 C 288.493 247.184,288.684 247.015,288.717 246.374 C 288.755 245.652,288.794 245.629,288.949 246.233 C 289.052 246.632,288.986 247.108,288.803 247.291 M271.272 251.980 C 271.149 252.180,271.278 252.346,271.559 252.350 C 271.931 252.354,271.912 252.456,271.488 252.724 C 271.167 252.927,270.766 252.953,270.596 252.783 C 270.187 252.375,270.683 251.113,271.141 251.396 C 271.337 251.517,271.396 251.780,271.272 251.980 M252.371 255.834 C 252.064 256.028,251.772 256.466,251.722 256.807 C 251.672 257.147,251.794 257.325,251.994 257.201 C 252.193 257.078,252.237 256.784,252.091 256.547 C 251.920 256.271,252.057 256.206,252.475 256.367 C 252.899 256.530,253.125 256.417,253.125 256.042 C 253.125 255.374,253.106 255.369,252.371 255.834 M231.799 257.098 C 231.390 257.565,231.259 257.828,231.510 257.682 C 231.760 257.536,232.062 257.638,232.182 257.908 C 232.301 258.178,232.360 258.047,232.313 257.617 C 232.261 257.145,232.431 256.878,232.744 256.943 C 233.028 257.002,233.150 256.870,233.014 256.650 C 232.682 256.113,232.654 256.124,231.799 257.098 M229.293 259.965 C 229.032 260.280,228.635 260.425,228.411 260.287 C 228.168 260.137,228.122 260.226,228.296 260.508 C 228.520 260.870,228.783 260.853,229.431 260.431 C 229.894 260.129,230.597 259.930,230.993 259.990 C 231.388 260.049,231.604 259.989,231.471 259.856 C 230.968 259.354,229.750 259.415,229.293 259.965 M278.312 259.779 C 278.161 260.024,278.232 260.420,278.472 260.659 C 278.711 260.898,278.906 260.949,278.906 260.772 C 278.906 260.596,279.214 260.692,279.590 260.987 C 280.222 261.483,280.229 261.467,279.688 260.780 C 279.365 260.371,279.159 259.936,279.229 259.813 C 279.477 259.375,278.582 259.342,278.312 259.779 M225.000 261.869 C 225.000 262.167,225.441 262.699,225.980 263.053 C 226.674 263.507,226.931 263.549,226.859 263.195 C 226.803 262.920,227.051 262.717,227.409 262.744 C 227.767 262.771,228.146 262.463,228.251 262.061 C 228.417 261.426,228.212 261.328,226.721 261.328 C 225.515 261.328,225.000 261.490,225.000 261.869 M248.322 262.736 C 247.936 263.251,247.804 263.672,248.029 263.672 C 248.254 263.672,248.440 264.067,248.443 264.551 C 248.448 265.261,248.522 265.318,248.828 264.844 C 249.152 264.343,249.208 264.357,249.213 264.941 C 249.216 265.317,249.389 265.625,249.597 265.625 C 250.052 265.625,249.643 264.378,249.052 263.965 C 248.770 263.768,248.825 263.546,249.219 263.287 C 249.740 262.945,249.740 262.901,249.219 262.891 C 248.741 262.881,248.730 262.817,249.163 262.543 C 249.454 262.358,249.542 262.115,249.358 262.003 C 249.174 261.891,248.708 262.221,248.322 262.736 M220.260 263.687 L 219.231 264.844 220.553 264.844 C 221.468 264.844,221.875 264.663,221.875 264.258 C 221.875 263.569,222.236 263.522,223.047 264.105 C 223.541 264.461,223.526 264.493,222.949 264.307 C 222.174 264.058,221.983 265.013,222.717 265.467 C 222.996 265.640,223.062 265.574,222.889 265.295 C 222.715 265.013,222.896 264.844,223.373 264.844 C 223.792 264.844,224.240 264.571,224.368 264.238 C 224.518 263.845,224.443 263.729,224.154 263.907 C 223.873 264.081,223.815 264.010,223.996 263.716 C 224.161 263.449,224.625 263.357,225.082 263.503 C 225.613 263.671,225.790 263.611,225.612 263.323 C 225.271 262.772,223.723 262.762,223.178 263.306 C 222.884 263.600,222.583 263.543,222.151 263.111 C 221.384 262.344,221.481 262.315,220.260 263.687 M217.578 264.453 C 216.351 265.680,216.846 267.500,218.119 266.443 C 218.398 266.212,218.706 266.102,218.803 266.199 C 218.901 266.296,218.909 265.768,218.822 265.024 C 218.638 263.444,218.603 263.428,217.578 264.453 M247.584 264.703 C 247.462 265.162,247.494 265.753,247.655 266.014 C 248.091 266.719,248.352 265.966,248.061 264.844 C 247.818 263.907,247.798 263.901,247.584 264.703 M212.679 266.041 C 212.484 266.358,212.673 266.404,213.327 266.196 C 214.152 265.934,214.194 265.972,213.719 266.545 C 213.256 267.102,213.283 267.188,213.917 267.193 C 214.319 267.196,215.088 267.295,215.625 267.413 L 216.602 267.627 215.625 266.990 C 215.088 266.639,214.950 266.445,215.320 266.558 C 215.689 266.670,216.094 266.595,216.221 266.389 C 216.348 266.184,216.398 266.005,216.332 265.991 C 214.680 265.659,212.901 265.683,212.679 266.041 M205.078 267.285 C 205.078 267.446,205.969 267.578,207.057 267.578 C 208.145 267.578,209.376 267.760,209.791 267.982 C 210.312 268.261,210.547 268.261,210.547 267.982 C 210.547 267.760,210.239 267.561,209.863 267.539 C 209.412 267.513,209.512 267.397,210.156 267.196 C 210.786 267.000,210.057 266.910,208.106 266.942 C 206.441 266.970,205.079 267.124,205.078 267.285 M246.484 267.164 C 246.484 267.438,246.238 267.567,245.936 267.451 C 245.197 267.168,243.861 268.140,244.472 268.518 C 244.719 268.671,244.922 268.615,244.922 268.395 C 244.922 268.174,245.157 268.084,245.445 268.194 C 246.024 268.416,247.135 267.317,246.735 266.918 C 246.597 266.780,246.484 266.891,246.484 267.164 M219.336 281.919 C 218.202 282.192,217.857 282.638,218.729 282.703 C 219.141 282.735,219.688 282.508,219.944 282.200 C 220.199 281.892,220.343 281.661,220.263 281.686 C 220.183 281.711,219.766 281.816,219.336 281.919 M186.990 283.062 C 186.602 283.450,187.084 283.985,187.816 283.978 C 188.390 283.973,188.400 283.918,187.891 283.554 C 187.431 283.226,187.515 283.184,188.281 283.359 C 188.818 283.482,189.609 283.606,190.039 283.633 C 190.469 283.661,190.117 283.831,189.258 284.011 C 187.400 284.400,185.145 284.088,185.983 283.557 C 186.406 283.289,186.368 283.214,185.805 283.209 C 185.410 283.206,184.272 284.038,183.275 285.059 C 181.886 286.482,181.434 286.760,181.333 286.252 C 181.161 285.390,180.301 285.734,179.475 286.995 C 179.102 287.564,179.035 287.857,179.317 287.683 C 179.647 287.479,179.710 287.537,179.510 287.863 C 179.345 288.128,178.459 288.668,177.539 289.063 C 175.720 289.842,174.949 290.625,176.001 290.625 C 176.552 290.625,176.576 290.723,176.153 291.234 C 175.603 291.896,172.925 291.693,171.964 290.916 C 171.590 290.614,171.527 290.673,171.713 291.156 C 171.848 291.508,172.379 291.797,172.893 291.797 C 173.407 291.797,173.828 291.948,173.828 292.133 C 173.828 292.318,173.345 292.398,172.754 292.309 L 171.680 292.149 172.804 292.793 C 173.642 293.273,174.002 293.319,174.215 292.975 C 174.419 292.644,174.568 292.688,174.738 293.131 C 174.869 293.472,175.255 293.750,175.597 293.750 C 175.938 293.750,176.111 293.924,175.979 294.136 C 175.842 294.358,175.999 294.423,176.348 294.289 C 177.167 293.975,178.995 294.462,178.712 294.919 C 178.588 295.120,179.152 295.022,179.966 294.700 C 181.202 294.212,181.329 294.208,180.738 294.677 C 180.330 295.001,180.195 295.338,180.418 295.477 C 180.631 295.608,180.922 295.527,181.065 295.295 C 181.234 295.023,181.497 295.110,181.814 295.544 C 182.156 296.012,182.386 296.078,182.581 295.762 C 182.734 295.515,183.507 295.289,184.300 295.261 L 185.742 295.210 184.375 294.922 L 183.008 294.634 184.570 294.555 C 186.442 294.461,187.605 294.051,187.431 293.547 C 187.362 293.345,188.052 292.767,188.965 292.264 C 189.878 291.760,190.625 291.537,190.625 291.768 C 190.625 292.552,191.870 292.192,192.910 291.106 C 194.360 289.592,196.056 288.574,196.711 288.825 C 197.074 288.965,197.266 288.773,197.266 288.269 C 197.266 287.651,197.554 287.488,198.730 287.441 C 200.899 287.352,201.090 287.321,201.405 287.007 C 201.563 286.848,201.356 286.716,200.944 286.713 C 200.318 286.708,200.291 286.645,200.781 286.328 C 201.269 286.013,201.236 285.944,200.586 285.917 C 199.858 285.887,199.864 285.856,200.684 285.461 C 201.167 285.228,201.563 284.888,201.563 284.706 C 201.563 284.524,202.354 284.375,203.320 284.375 C 204.287 284.375,205.078 284.201,205.078 283.989 C 205.078 283.744,203.777 283.695,201.526 283.854 C 198.701 284.055,197.895 283.994,197.590 283.557 C 197.372 283.245,197.135 283.177,197.041 283.398 C 196.838 283.876,194.087 283.815,190.430 283.250 C 187.149 282.744,187.300 282.752,186.990 283.062 M212.891 283.203 C 212.891 283.667,213.569 283.667,214.648 283.203 C 215.303 282.922,215.224 282.863,214.160 282.840 C 213.462 282.825,212.891 282.988,212.891 283.203 M207.318 283.484 C 206.028 283.678,206.280 284.375,207.640 284.375 C 208.227 284.375,208.594 284.150,208.594 283.789 C 208.594 283.467,208.550 283.229,208.496 283.262 C 208.442 283.294,207.912 283.394,207.318 283.484 M185.547 284.381 C 186.068 284.723,186.068 284.808,185.547 285.150 C 184.669 285.727,184.375 285.630,184.375 284.766 C 184.375 283.901,184.669 283.804,185.547 284.381 M174.488 289.746 C 174.315 290.015,174.271 290.394,174.392 290.589 C 174.512 290.783,174.215 290.866,173.731 290.773 C 172.895 290.611,172.898 290.623,173.787 291.013 C 174.913 291.506,175.103 291.366,174.933 290.170 C 174.844 289.542,174.706 289.410,174.488 289.746 M184.375 296.048 C 184.375 296.288,184.771 296.507,185.254 296.534 C 186.372 296.598,187.326 296.716,189.160 297.019 C 190.033 297.164,190.625 297.104,190.625 296.873 C 190.625 296.659,189.966 296.470,189.160 296.452 C 187.482 296.415,186.502 296.272,185.254 295.885 C 184.704 295.714,184.375 295.775,184.375 296.048 M194.238 297.535 C 194.614 297.633,195.229 297.633,195.605 297.535 C 195.981 297.437,195.674 297.356,194.922 297.356 C 194.170 297.356,193.862 297.437,194.238 297.535 " stroke="none" fill="#d4d4db" fill-rule="evenodd"/></g></svg>