<?xml version="1.0" encoding="UTF-8" standalone="no"?>
<!-- Created with Inkscape (http://www.inkscape.org/) -->

<svg
   width="189mm"
   height="207mm"
   viewBox="0 0 189 207"
   version="1.1"
   id="svg5"
   xml:space="preserve"
   inkscape:version="1.2.2 (b0a8486541, 2022-12-01)"
   sodipodi:docname="light-logo.svg"
   xmlns:inkscape="http://www.inkscape.org/namespaces/inkscape"
   xmlns:sodipodi="http://sodipodi.sourceforge.net/DTD/sodipodi-0.dtd"
   xmlns="http://www.w3.org/2000/svg"
   xmlns:svg="http://www.w3.org/2000/svg"><sodipodi:namedview
     id="namedview7"
     pagecolor="#ffffff"
     bordercolor="#000000"
     borderopacity="0.25"
     inkscape:showpageshadow="2"
     inkscape:pageopacity="0.0"
     inkscape:pagecheckerboard="0"
     inkscape:deskcolor="#d1d1d1"
     inkscape:document-units="mm"
     showgrid="false"
     inkscape:zoom="0.55244701"
     inkscape:cx="25.341797"
     inkscape:cy="444.38651"
     inkscape:window-width="1920"
     inkscape:window-height="1056"
     inkscape:window-x="0"
     inkscape:window-y="0"
     inkscape:window-maximized="1"
     inkscape:current-layer="layer1" /><defs
     id="defs2" /><g
     inkscape:label="Layer 1"
     inkscape:groupmode="layer"
     id="layer1"><path
       style="fill:#000000;stroke-width:0.238269"
       d="M 16.645058,122.23637 V 75.210288 l 14.951429,-7.21629 c 8.223286,-3.96896 19.937227,-9.625189 26.030979,-12.569384 23.666385,-11.434422 36.725122,-17.687112 36.939507,-17.687112 0.122996,0 8.132777,3.815052 17.799517,8.477896 46.75813,22.55426 54.47253,26.28408 57.1176,27.61571 l 2.84819,1.43388 0.0119,46.873742 0.0118,46.87373 -0.95436,0.13821 c -0.52491,0.076 -2.18743,0.10551 -3.69448,0.0655 l -2.74009,-0.0728 -0.0556,-44.07991 c -0.0305,-24.24397 -0.0574,-44.304842 -0.0596,-44.579752 -0.003,-0.40669 -0.61453,-0.78994 -3.28022,-2.05671 -1.8019,-0.85629 -10.99615,-5.28207 -20.43163,-9.83508 -9.43549,-4.553 -23.77707,-11.472883 -31.87019,-15.377503 L 94.555044,46.115084 72.695393,56.666565 c -12.022804,5.803333 -23.843245,11.508903 -26.267645,12.679053 -2.42439,1.17015 -8.40199,4.05008 -13.283541,6.39983 l -8.875548,4.27225 v 44.622402 44.6224 h -3.812318 -3.812316 z m 26.447952,43.21376 v -3.81233 h 51.466281 51.466289 v 3.81233 3.81232 H 94.559292 43.09301 Z m 0.05367,-19.35942 0.06546,-3.87189 51.406709,-0.0601 51.406721,-0.0601 v 3.93199 3.93199 H 94.553393 43.081213 Z m -0.05367,-19.47857 v -3.81231 h 51.466281 51.466289 v 3.81231 3.81232 H 94.559292 43.09301 Z m 0.158852,-17.31426 c -0.08736,-0.0874 -0.158852,-1.80291 -0.158852,-3.81233 v -3.65347 h 51.466281 51.466289 v 3.81232 3.81231 H 94.718139 c -28.219092,0 -51.378918,-0.0715 -51.466281,-0.15887 z"
       id="path912" /></g></svg>
