<?xml version="1.0" encoding="UTF-8" standalone="no"?>
<svg
   version="1.1"
   width="1380px"
   height="920px"
   style="shape-rendering:geometricPrecision; text-rendering:geometricPrecision; image-rendering:optimizeQuality; fill-rule:evenodd; clip-rule:evenodd"
   id="svg5077"
   sodipodi:docname="save.svg"
   inkscape:version="1.2.2 (b0a8486541, 2022-12-01)"
   xmlns:inkscape="http://www.inkscape.org/namespaces/inkscape"
   xmlns:sodipodi="http://sodipodi.sourceforge.net/DTD/sodipodi-0.dtd"
   xmlns="http://www.w3.org/2000/svg"
   xmlns:svg="http://www.w3.org/2000/svg">
  <defs
     id="defs5081" />
  <sodipodi:namedview
     id="namedview5079"
     pagecolor="#ffffff"
     bordercolor="#000000"
     borderopacity="0.25"
     inkscape:showpageshadow="2"
     inkscape:pageopacity="0.0"
     inkscape:pagecheckerboard="0"
     inkscape:deskcolor="#d1d1d1"
     showgrid="false"
     inkscape:zoom="0.66970186"
     inkscape:cx="829.47358"
     inkscape:cy="886.21525"
     inkscape:window-width="1920"
     inkscape:window-height="1056"
     inkscape:window-x="0"
     inkscape:window-y="0"
     inkscape:window-maximized="1"
     inkscape:current-layer="svg5077" />
  <rect
     style="fill:#415a77;fill-opacity:1;stroke-width:0.480578"
     id="rect5570"
     width="1380.0594"
     height="920"
     x="-3.4638958e-14"
     y="-6.2616579e-14" />
  <g
     id="g3443"
     transform="translate(-249.97028,0.5)">
    <path
       style="opacity:1"
       fill="#fcefe6"
       d="m 747.5,-0.5 c 0.667,0 1.333,0 2,0 0,98 0,196 0,294 -0.667,0.333 -1.333,0.667 -2,1 0,-98.333 0,-196.6667 0,-295 z"
       id="path3441" />
  </g>
  <g
     id="g3647"
     transform="translate(-249.97028,0.5)">
    <path
       style="opacity:1"
       fill="#fef3f0"
       d="m 1127.5,-0.5 c 0.67,0 1.33,0 2,0 0,118 0,236 0,354 -0.67,0 -1.33,0 -2,0 0,-118 0,-236 0,-354 z"
       id="path3645" />
  </g>
  <g
     id="g3787"
     transform="translate(-249.97028,0.5)">
    <path
       style="opacity:1"
       fill="#fcfbfb"
       d="m 983.5,-0.5 c 0.667,0 1.333,0 2,0 -0.333,100.1681 10e-4,200.168 1,300 0.591,0.651 1.257,1.318 2,2 -2.607,0.818 -5.274,1.318 -8,1.5 1.5,1.167 3,2.333 4.5,3.5 0.908,-1.939 2.408,-2.939 4.5,-3 0.02,1.643 -0.647,2.976 -2,4 0.333,0.667 0.667,1.333 1,2 -2.544,0.423 -5.211,0.423 -8,0 -1.611,0.82 -2.278,2.154 -2,4 -3.058,4.927 -2.391,9.261 2,13 0.812,1.493 2.145,2.16 4,2 2.057,0.064 3.723,-0.602 5,-2 1,-0.333 1.667,-1 2,-2 1.44,-1.446 2.107,-3.279 2,-5.5 0.193,-2.008 -0.474,-3.508 -2,-4.5 0,-0.333 0,-0.667 0,-1 -0.566,-3.083 -0.566,-6.083 0,-9 2.586,-0.98 5.253,-1.313 8,-1 -0.278,1.846 0.389,3.18 2,4 0.93,-1.189 1.26,-2.522 1,-4 1.33,0 2.67,0 4,0 0.46,4.256 -0.88,7.756 -4,10.5 5.05,3.97 4.71,5.803 -1,5.5 0,-1.333 0,-2.667 0,-4 -1.33,0 -2.667,0 -4,0 -0.16,3.384 0.173,6.717 1,10 -0.381,2.207 -1.714,3.54 -4,4 -0.966,1.896 -1.299,3.896 -1,6 2.411,0.363 3.911,-0.637 4.5,-3 0.692,0.525 1.192,1.192 1.5,2 -1.276,55.71 -1.276,111.376 0,167 -0.973,1.892 -1.64,3.892 -2,6 0.958,22.651 1.291,45.317 1,68 3.07,-0.317 6.07,0.016 9,1 -7.645,0.831 -15.312,1.331 -23,1.5 7.619,1.205 15.286,1.705 23,1.5 4.91,1.789 10.24,2.622 16,2.5 -5.33,0.333 -10.67,0.667 -16,1 8.01,0.5 16.01,1 24,1.5 -2.16,1.72 -4.82,2.553 -8,2.5 2.67,0.333 5.33,0.667 8,1 -22.17,0.168 -44.17,0.668 -66,1.5 -0.295,2.235 0.039,4.235 1,6 0,1.333 0,2.667 0,4 0.7,4.298 1.033,8.631 1,13 -0.165,3.682 10e-4,7.348 0.5,11 0.278,0.916 0.778,1.582 1.5,2 0.498,4.652 0.831,9.319 1,14 0,1.333 0,2.667 0,4 -1,0 -2,0 -3,0 0,-0.667 -0.333,-1 -1,-1 -1.585,-17.677 -3.251,-35.344 -5,-53 -2.667,0 -5.333,0 -8,0 0.167,-25.002 0,-50.002 -0.5,-75 -0.726,-6.69 -1.56,-13.356 -2.5,-20 -1.718,-15.663 -3.384,-31.33 -5,-47 1.831,4.144 3.498,8.477 5,13 0.333,2 0.667,4 1,6 0,1.667 0,3.333 0,5 0,2.667 0,5.333 0,8 1,0 2,0 3,0 0,-59.667 0,-119.333 0,-179 9.848,0.327 19.514,-0.006 29,-1 0,-100 0,-200 0,-300 z"
       id="path3785" />
  </g>
  <g
     id="g3791"
     transform="translate(-249.97028,0.5)">
    <path
       style="opacity:1"
       fill="#fcfbfb"
       d="m 724.5,453.5 c -4,-3 -8,-6 -12,-9 -7.693,-7.361 -15.36,-14.694 -23,-22 -2.584,-4.433 -5.418,-8.766 -8.5,-13 -2.916,-5.998 -5.416,-11.998 -7.5,-18 0,-0.333 0,-0.667 0,-1 0.09,-2.652 -0.576,-4.985 -2,-7 0,-8 0,-16 0,-24 0,-0.667 0,-1.333 0,-2 1.238,-1.714 1.905,-3.714 2,-6 0,-0.667 0,-1.333 0,-2 1.424,-2.015 2.09,-4.348 2,-7 2.78,-10.905 8.113,-20.238 16,-28 3,-2 6,-4 9,-6 1.784,1.91 2.784,4.244 3,7 1.988,-0.327 3.988,-0.66 6,-1 3.111,1.685 6.444,2.185 10,1.5 -2.854,-2.688 -5.854,-5.188 -9,-7.5 0.5,-0.333 1,-0.667 1.5,-1 2.256,1.585 4.756,2.252 7.5,2 0,-1.333 0,-2.667 0,-4 -5.079,-0.282 -5.246,-1.282 -0.5,-3 1.356,0.88 2.856,1.214 4.5,1 0.866,15.983 1.2,31.983 1,48 1,0 2,0 3,0 0.756,6.991 0.923,13.991 0.5,21 -0.681,2.395 -1.515,4.728 -2.5,7 -1.236,0.746 -2.57,1.079 -4,1 0,1 0,2 0,3 1,0 2,0 3,0 -0.266,14.686 0.067,29.352 1,44 -1.654,6.566 -2.321,13.233 -2,20 1.373,-0.157 2.707,0.01 4,0.5 -1.473,0.71 -2.14,1.876 -2,3.5 2.338,-0.937 4.505,-2.27 6.5,-4 1.645,2.235 0.812,3.235 -2.5,3 0,1.333 0,2.667 0,4 -1.716,-0.129 -3.383,-0.462 -5,-1 z"
       id="path3789" />
  </g>
  <g
     id="g3839"
     transform="translate(-249.97028,0.5)">
    <path
       style="opacity:1"
       fill="#fde9e6"
       d="m 953.5,299.5 c 10,0 20,0 30,0 -9.486,0.994 -19.152,1.327 -29,1 0,59.667 0,119.333 0,179 -1,0 -2,0 -3,0 0,-2.667 0,-5.333 0,-8 0.617,0.111 1.117,0.444 1.5,1 0.5,-57.666 0.667,-115.332 0.5,-173 z"
       id="path3837" />
  </g>
  <g
     id="g3887"
     transform="translate(-249.97028,0.5)">
    <path
       style="opacity:1"
       fill="#f7f5f4"
       d="m 986.5,299.5 c 10.333,0 20.67,0 31,0 1,77.498 1.33,155.165 1,233 -0.85,1.132 -0.85,2.465 0,4 -1.84,1.252 -3.67,1.252 -5.5,0 -0.62,0.949 -0.45,1.782 0.5,2.5 -3.57,2.132 -3.57,3.632 0,4.5 0,11 0,22 0,33 3.35,-0.165 6.68,0.002 10,0.5 -0.33,0.333 -0.67,0.667 -1,1 -5.18,0.174 -10.18,0.674 -15,1.5 -7.714,0.205 -15.381,-0.295 -23,-1.5 7.688,-0.169 15.355,-0.669 23,-1.5 -2.93,-0.984 -5.93,-1.317 -9,-1 0.291,-22.683 -0.042,-45.349 -1,-68 0.36,-2.108 1.027,-4.108 2,-6 -1.276,-55.624 -1.276,-111.29 0,-167 -0.308,-0.808 -0.808,-1.475 -1.5,-2 -0.589,2.363 -2.089,3.363 -4.5,3 -0.299,-2.104 0.034,-4.104 1,-6 2.286,-0.46 3.619,-1.793 4,-4 -0.827,-3.283 -1.16,-6.616 -1,-10 1.333,0 2.67,0 4,0 0,1.333 0,2.667 0,4 5.71,0.303 6.05,-1.53 1,-5.5 3.12,-2.744 4.46,-6.244 4,-10.5 -1.33,0 -2.67,0 -4,0 0.26,1.478 -0.07,2.811 -1,4 -1.611,-0.82 -2.278,-2.154 -2,-4 -2.747,-0.313 -5.414,0.02 -8,1 -0.566,2.917 -0.566,5.917 0,9 -0.667,-0.333 -1.333,-0.667 -2,-1 -1.068,-0.934 -2.401,-1.268 -4,-1 0,1.667 0,3.333 0,5 -0.06,0.543 -0.393,0.876 -1,1 -0.966,-1.896 -1.299,-3.896 -1,-6 -2.014,-0.108 -3.68,0.558 -5,2 -0.278,-1.846 0.389,-3.18 2,-4 2.789,0.423 5.456,0.423 8,0 -0.333,-0.667 -0.667,-1.333 -1,-2 1.353,-1.024 2.02,-2.357 2,-4 -2.092,0.061 -3.592,1.061 -4.5,3 -1.5,-1.167 -3,-2.333 -4.5,-3.5 2.726,-0.182 5.393,-0.682 8,-1.5 -0.743,-0.682 -1.409,-1.349 -2,-2 z"
       id="path3885" />
  </g>
  <g
     id="g3931"
     transform="translate(-249.97028,0.5)">
    <path
       style="opacity:1"
       fill="#fed9c6"
       d="m 889.5,353.5 c 16.667,0 33.333,0 50,0 0,2.667 0,5.333 0,8 -0.968,-2.107 -1.302,-4.441 -1,-7 -16.509,0.33 -32.842,-0.004 -49,-1 z"
       id="path3929" />
  </g>
  <g
     id="g3947"
     transform="translate(-249.97028,0.5)">
    <path
       style="opacity:1"
       fill="#fcfbfa"
       d="m 1065.5,353.5 c 20.67,0 41.33,0 62,0 0.67,0 1.33,0 2,0 21.67,0 43.33,0 65,0 0,18.667 0,37.333 0,56 -1,0 -2,0 -3,0 0,-1.333 0,-2.667 0,-4 0,-16 0,-32 0,-48 -8,0 -16,0 -24,0 -9.34,-0.166 -18.67,0 -28,0.5 -2.09,0.315 -4.09,0.815 -6,1.5 -0.32,-1.548 -1.32,-2.215 -3,-2 0.24,1.291 -0.1,2.291 -1,3 -1,0.086 -1.83,-0.248 -2.5,-1 -0.31,0.808 -0.81,1.475 -1.5,2 -1.11,-1.111 -2.44,-1.778 -4,-2 -5.84,1.813 -11.84,2.48 -18,2 0,1 0,2 0,3 2.57,-0.352 4.91,0.148 7,1.5 -6.63,0.823 -6.63,1.323 0,1.5 0,4 0,8 0,12 2.32,0.162 3.99,1.328 5,3.5 -1.5,0.507 -2.66,0.007 -3.5,-1.5 -0.83,1.162 -1.66,2.329 -2.5,3.5 0.89,84.808 1.06,169.641 0.5,254.5 -5.29,2.372 -10.63,2.372 -16,0 -9.19,0.608 -18.35,1.608 -27.5,3 -0.57,-18.482 0.1,-36.482 2,-54 -0.82,-0.886 -1.82,-1.219 -3,-1 0.33,-17.175 0,-34.175 -1,-51 -8.33,0 -16.67,0 -25,0 -7,0 -14,0 -21,0 -0.85,-1.535 -0.85,-2.868 0,-4 15.33,0 30.67,0 46,0 0,-59.333 0,-118.667 0,-178 0,-0.667 0.33,-1 1,-1 z"
       id="path3945" />
  </g>
  <g
     id="g3951"
     transform="translate(-249.97028,0.5)">
    <path
       style="opacity:1"
       fill="#e0e0de"
       d="m 1167.5,357.5 c -0.76,0.768 -1.76,1.268 -3,1.5 6.36,0.169 12.69,0.669 19,1.5 -3.96,0.827 -7.96,1.327 -12,1.5 4.41,0.823 4.75,1.99 1,3.5 0.98,11.282 1.31,22.615 1,34 1.37,-0.157 2.71,0.01 4,0.5 -3.29,1.264 -6.62,2.43 -10,3.5 0.21,0.586 0.54,1.086 1,1.5 7.71,0.862 15.38,1.028 23,0.5 0,1.333 0,2.667 0,4 -20.33,0 -40.67,0 -61,0 6.06,-0.595 12.06,-1.595 18,-3 4.35,0.166 8.68,-10e-4 13,-0.5 -0.67,-0.333 -1.33,-0.667 -2,-1 -8.02,-0.168 -16.02,-0.668 -24,-1.5 4.92,-0.448 9.59,-1.615 14,-3.5 -0.2,-8.23 -0.2,-16.397 0,-24.5 0.28,-3.42 0.95,-6.753 2,-10 -5.33,-0.667 -10.67,-1.333 -16,-2 -1.35,-1.024 -2.02,-2.357 -2,-4 1.91,-0.685 3.91,-1.185 6,-1.5 9.33,-0.5 18.66,-0.666 28,-0.5 z"
       id="path3949" />
  </g>
  <g
     id="g3955"
     transform="translate(-249.97028,0.5)">
    <path
       style="opacity:1"
       fill="#fcfbfb"
       d="m 844.5,354.5 c -0.947,2.258 0.053,3.425 3,3.5 45.205,1.436 45.205,2.602 0,3.5 42.667,1.333 42.667,2.667 0,4 0.209,0.586 0.543,1.086 1,1.5 3.652,0.499 7.318,0.665 11,0.5 0,85.333 0,170.667 0,256 1.667,0 3.333,0 5,0 1.585,5.178 2.252,10.512 2,16 0,1.333 0,2.667 0,4 -20.667,0 -41.333,0 -62,0 0.52,-9.677 1.186,-19.344 2,-29 0,-0.667 0,-1.333 0,-2 1.82,-11.21 3.487,-22.543 5,-34 3.507,-33.125 7.173,-66.792 11,-101 -3.04,-12.081 -8.707,-22.747 -17,-32 -6.078,-7.414 -13.078,-13.747 -21,-19 0,-0.667 -0.333,-1 -1,-1 -4.926,-3.421 -9.426,-7.421 -13.5,-12 -0.483,-0.948 -0.649,-1.948 -0.5,-3 1,0 2,0 3,0 9.181,6.758 18.181,13.758 27,21 9.609,8.936 17.276,19.269 23,31 0.457,0.798 1.124,1.131 2,1 1.457,-5.098 2.124,-10.431 2,-16 0,-0.667 0,-1.333 0,-2 1.472,-4.419 2.138,-9.086 2,-14 0.437,-10.058 1.437,-20.058 3,-30 -0.319,-6.21 0.348,-12.21 2,-18 1.457,-5.098 2.124,-10.431 2,-16 0.116,-3.36 0.449,-6.693 1,-10 0.904,-0.709 1.237,-1.709 1,-3 2.333,0 4.667,0 7,0 z"
       id="path3953" />
  </g>
  <g
     id="g3959"
     transform="translate(-249.97028,0.5)">
    <path
       style="opacity:1"
       fill="#f6f6f6"
       d="m 1129.5,360.5 c -0.08,1.25 -0.74,2.083 -2,2.5 1.26,0.417 1.92,1.25 2,2.5 0.3,2.104 -0.03,4.104 -1,6 -0.61,-0.124 -0.94,-0.457 -1,-1 0,-1.667 0,-3.333 0,-5 -4.72,1.06 -7.39,4.06 -8,9 0.17,1.671 0.83,3.004 2,4 0,0.667 0.33,1 1,1 1.41,2.039 3.41,3.039 6,3 1.24,0.712 1.74,1.712 1.5,3 -1.73,0.749 -3.57,1.249 -5.5,1.5 3.15,0.981 3.49,2.315 1,4 1.11,4.733 1.78,9.566 2,14.5 -1,0 -2,0 -3,0 0.3,-2.104 -0.03,-4.104 -1,-6 -2.42,2.999 -2.25,5.999 0.5,9 2.76,1.517 4.59,0.684 5.5,-2.5 1,-0.167 2,-0.333 3,-0.5 5.3,0.844 10.63,1.177 16,1 -5.94,1.405 -11.94,2.405 -18,3 -0.33,19.174 0,38.174 1,57 19.83,0.997 39.83,1.33 60,1 0,17.667 0,35.333 0,53 -1,0 -2,0 -3,0 0,-16.667 0,-33.333 0,-50 -18.84,-1.289 -37.84,-1.289 -57,0 -3,-0.993 -5.83,-2.326 -8.5,-4 -3.04,-10e-4 -3.21,0.832 -0.5,2.5 -0.95,0.617 -1.78,0.451 -2.5,-0.5 -0.49,1.634 -0.66,3.301 -0.5,5 4.47,0.596 8.47,2.429 12,5.5 -1.63,0.494 -3.3,0.66 -5,0.5 -0.17,10.672 0,21.339 0.5,32 0.86,4.788 3.7,6.788 8.5,6 0,1 0,2 0,3 -1.67,0 -3.33,0 -5,0 0,22.333 0,44.667 0,67 22.67,0 45.33,0 68,0 0,18.667 0,37.333 0,56 -1,0 -2,0 -3,0 0,-0.333 0,-0.667 0,-1 0,-17 0,-34 0,-51 -7.16,-0.666 -14.49,-1 -22,-1 -12.05,-0.12 -24.05,0.546 -36,2 0.77,1.795 1.43,3.628 2,5.5 -0.97,13.797 -1.31,27.63 -1,41.5 3.73,0.295 7.39,0.961 11,2 -4.15,0.667 -8.15,1.334 -12,2 -24,0 -48,0 -72,0 0.33,-18.174 0,-36.174 -1,-54 0,-17.667 0,-35.333 0,-53 1,16.825 1.33,33.825 1,51 1.18,-0.219 2.18,0.114 3,1 -1.9,17.518 -2.57,35.518 -2,54 9.15,-1.392 18.31,-2.392 27.5,-3 5.37,2.372 10.71,2.372 16,0 0.56,-84.859 0.39,-169.692 -0.5,-254.5 0.84,-1.171 1.67,-2.338 2.5,-3.5 0.84,1.507 2,2.007 3.5,1.5 -1.01,-2.172 -2.68,-3.338 -5,-3.5 0,-4 0,-8 0,-12 -6.63,-0.177 -6.63,-0.677 0,-1.5 -2.09,-1.352 -4.43,-1.852 -7,-1.5 0,-1 0,-2 0,-3 6.16,0.48 12.16,-0.187 18,-2 1.56,0.222 2.89,0.889 4,2 0.69,-0.525 1.19,-1.192 1.5,-2 0.67,0.752 1.5,1.086 2.5,1 z"
       id="path3957" />
  </g>
  <g
     id="g3963"
     transform="translate(-249.97028,0.5)">
    <path
       style="opacity:1"
       fill="#cccccc"
       d="m 1167.5,357.5 c 8,0 16,0 24,0 0,16 0,32 0,48 -7.62,0.528 -15.29,0.362 -23,-0.5 -0.46,-0.414 -0.79,-0.914 -1,-1.5 3.38,-1.07 6.71,-2.236 10,-3.5 -1.29,-0.49 -2.63,-0.657 -4,-0.5 0.31,-11.385 -0.02,-22.718 -1,-34 3.75,-1.51 3.41,-2.677 -1,-3.5 4.04,-0.173 8.04,-0.673 12,-1.5 -6.31,-0.831 -12.64,-1.331 -19,-1.5 1.24,-0.232 2.24,-0.732 3,-1.5 z"
       id="path3961" />
  </g>
  <g
     id="g3967"
     transform="translate(-249.97028,0.5)">
    <path
       style="opacity:1"
       fill="#f7f5f3"
       d="m 887.5,-0.5 c 0.667,0 1.333,0 2,0 0,118 0,236 0,354 16.158,0.996 32.491,1.33 49,1 -0.302,2.559 0.032,4.893 1,7 0.646,7.518 1.646,14.852 3,22 1.755,17.709 3.755,35.376 6,53 0.887,7.976 1.554,15.976 2,24 -1.502,-4.523 -3.169,-8.856 -5,-13 -2.726,-23.494 -5.226,-47.161 -7.5,-71 -0.738,-3.491 -1.571,-6.825 -2.5,-10 0,-3 0,-6 0,-9 -13.35,-0.333 -26.683,10e-4 -40,1 -1.982,0.716 -3.649,1.883 -5,3.5 2.528,0.998 2.528,1.831 0,2.5 -5.1,-3.283 -8.1,-1.949 -9,4 -0.333,0.667 -0.667,1.333 -1,2 -0.652,0.949 -0.986,2.115 -1,3.5 -0.193,2.008 0.474,3.508 2,4.5 2.294,3.752 5.628,4.919 10,3.5 0.744,-1.039 1.744,-1.539 3,-1.5 -3.68,4.833 -8.68,6.999 -15,6.5 0.457,0.414 0.791,0.914 1,1.5 -0.941,-0.011 -1.608,0.489 -2,1.5 0.568,3.842 1.235,7.675 2,11.5 1.468,-1.833 3.135,-2.166 5,-1 -1.105,1.392 -2.439,2.559 -4,3.5 1,0.5 2,1 3,1.5 2.866,-1.295 5.699,-1.295 8.5,0 0.337,3.361 0.837,6.694 1.5,10 -0.802,2.949 -1.136,5.949 -1,9 -0.827,-5.485 -1.327,-11.152 -1.5,-17 -2.737,-1.11 -5.571,-1.277 -8.5,-0.5 -0.982,8.081 -1.316,16.248 -1,24.5 0,4.333 0,8.667 0,13 0,0.333 0,0.667 0,1 -1.402,13.158 -2.402,26.492 -3,40 -0.583,8.655 -0.916,17.322 -1,26 -0.992,7.825 -1.659,15.825 -2,24 -0.983,3.798 -1.317,7.798 -1,12 7.667,0 15.333,0 23,0 -1.307,1.302 -1.307,2.635 0,4 1.608,0.742 3.275,0.909 5,0.5 -0.88,1.356 -1.214,2.856 -1,4.5 -1.052,0.149 -2.052,-0.017 -3,-0.5 1.211,-0.893 1.211,-1.726 0,-2.5 -1.833,0.552 -3.5,1.385 -5,2.5 1.921,0.36 3.588,1.194 5,2.5 -1.189,0.929 -2.522,1.262 -4,1 -0.63,11.09 0.037,21.923 2,32.5 -0.837,1.011 -1.17,2.178 -1,3.5 1.667,0 3.333,0 5,0 0,-1.333 0,-2.667 0,-4 1.175,-0.219 2.175,0.114 3,1 -0.874,2.247 -1.208,4.58 -1,7 -11.179,-0.328 -22.179,0.005 -33,1 -0.217,13.261 -1.55,26.261 -4,39 0.252,-5.488 -0.415,-10.822 -2,-16 -1.667,0 -3.333,0 -5,0 0,-85.333 0,-170.667 0,-256 -3.682,0.165 -7.348,-10e-4 -11,-0.5 -0.457,-0.414 -0.791,-0.914 -1,-1.5 42.667,-1.333 42.667,-2.667 0,-4 45.205,-0.898 45.205,-2.064 0,-3.5 -2.947,-0.075 -3.947,-1.242 -3,-3.5 14.177,0.329 28.177,-0.004 42,-1 1,-117.832 1.333,-235.832 1,-354 z"
       id="path3965" />
  </g>
  <g
     id="g3971"
     transform="translate(-249.97028,0.5)">
    <path
       style="opacity:1"
       fill="#e3e3e3"
       d="m 921.5,367.5 c -0.794,5.907 -0.794,11.741 0,17.5 -0.808,0.308 -1.475,0.808 -2,1.5 1.365,1.441 2.865,2.774 4.5,4 0.93,-1.856 1.43,-3.856 1.5,-6 0.825,-0.886 1.825,-1.219 3,-1 -0.396,2.982 0.271,5.649 2,8 -0.893,2.584 -1.226,5.251 -1,8 -2.082,0.028 -3.916,-0.639 -5.5,-2 -2.407,2.375 -1.907,3.375 1.5,3 0,1.333 0,2.667 0,4 -2.397,0.625 -4.397,1.292 -6,2 1.993,77.521 2.66,155.188 2,233 -2.559,-0.302 -4.893,0.032 -7,1 -1.322,0.17 -2.489,-0.163 -3.5,-1 -0.464,0.594 -0.631,1.261 -0.5,2 -2.144,-6.778 -2.477,-13.778 -1,-21 -0.167,-1 -0.333,-2 -0.5,-3 -0.333,1.333 -0.667,2.667 -1,4 -0.497,-2.646 -0.664,-5.313 -0.5,-8 0.646,-3.588 1.98,-6.922 4,-10 -0.419,-1.172 -1.085,-2.172 -2,-3 2.352,-2.572 2.519,-5.238 0.5,-8 -0.167,-5.5 -0.333,-11 -0.5,-16.5 0.045,-6.007 0.712,-11.84 2,-17.5 -2.354,-1.746 -3.354,-4.079 -3,-7 -1.478,0.262 -2.811,-0.071 -4,-1 1.89,-0.924 3.39,-2.257 4.5,-4 3.426,-17.719 3.259,-35.386 -0.5,-53 2.239,-6.053 2.239,-12.053 0,-18 0.944,-17.316 1.277,-34.649 1,-52 -1.052,0.149 -2.052,-0.017 -3,-0.5 1.467,-1.098 2.301,-2.598 2.5,-4.5 1.5,-1.167 3,-2.333 4.5,-3.5 -1.304,-0.804 -1.971,-1.971 -2,-3.5 1.89,-2.718 3.556,-5.551 5,-8.5 -0.451,-3.964 -2.451,-5.131 -6,-3.5 -0.599,-8.442 -0.933,-16.609 -1,-24.5 1.791,-2.106 2.458,-4.606 2,-7.5 3.333,0 6.667,0 10,0 z"
       id="path3969" />
  </g>
  <g
     id="g3995"
     transform="translate(-249.97028,0.5)">
    <path
       style="opacity:1"
       fill="#eb928d"
       d="m 1135.5,369.5 c 1.53,0.992 2.19,2.492 2,4.5 -0.01,1.385 -0.35,2.551 -1,3.5 0.1,-2.737 -0.23,-5.404 -1,-8 z"
       id="path3993" />
  </g>
  <g
     id="g4035"
     transform="translate(-249.97028,0.5)">
    <path
       style="opacity:1"
       fill="#f6f5f4"
       d="m 749.5,293.5 c 0,1 0,2 0,3 9.185,-0.455 18.185,0.545 27,3 0.667,0 1.333,0 2,0 3.479,1.577 7.145,2.91 11,4 0.333,0 0.667,0 1,0 7.65,4.832 14.983,10.165 22,16 0.575,1.911 1.575,3.578 3,5 5.087,8.496 8.754,17.496 11,27 0.842,5.287 1.176,10.62 1,16 0,4.667 0,9.333 0,14 -1,0 -2,0 -3,0 1.063,-16.277 -1.937,-31.61 -9,-46 -1.845,-4.686 -4.345,-9.02 -7.5,-13 -2.086,-2.594 -4.586,-4.594 -7.5,-6 -2.478,-2.303 -5.145,-4.469 -8,-6.5 -3.285,-0.759 -6.285,-2.092 -9,-4 -3.947,-1.154 -7.947,-1.987 -12,-2.5 -5.767,-1.792 -11.767,-2.625 -18,-2.5 1.117,1.892 2.784,2.725 5,2.5 -0.455,1.867 -1.122,3.7 -2,5.5 0.45,1.55 0.617,3.05 0.5,4.5 -1.011,-0.837 -2.178,-1.17 -3.5,-1 -1.083,-0.039 -2.083,-0.373 -3,-1 -1.614,7.898 -2.614,7.898 -3,0 -1.291,-0.237 -2.291,0.096 -3,1 -2,0 -3,1 -3,3 -1.604,0.787 -2.271,2.12 -2,4 -1.844,0.704 -2.344,2.037 -1.5,4 2.167,0.833 3.667,2.333 4.5,4.5 1.525,1.009 3.192,1.509 5,1.5 0.17,1.322 -0.163,2.489 -1,3.5 -1.988,0.18 -3.988,0.014 -6,-0.5 1.294,3.515 2.128,7.182 2.5,11 0.333,-2.667 0.667,-5.333 1,-8 0.218,2.926 0.718,5.76 1.5,8.5 -0.857,0.689 -1.523,1.522 -2,2.5 1.333,1.333 1.333,2.667 0,4 -1.578,0.798 -3.244,1.298 -5,1.5 0.333,0.333 0.667,0.667 1,1 -1.473,0.71 -2.14,1.876 -2,3.5 -1.1,1.105 -1.767,2.438 -2,4 -1.497,1.79 -2.164,3.956 -2,6.5 -0.164,2.544 0.503,4.71 2,6.5 0,0.333 0,0.667 0,1 1.32,3.306 3.153,6.306 5.5,9 7.745,7.584 15.911,14.584 24.5,21 0.269,1.929 -0.231,3.595 -1.5,5 -2.185,-1.428 -4.185,-3.095 -6,-5 -0.494,1.634 -0.66,3.301 -0.5,5 -1,0 -2,0 -3,0 0,1.333 0,2.667 0,4 2.424,-0.308 4.757,0.026 7,1 -0.825,0.886 -1.825,1.219 -3,1 0.318,16.381 -0.015,32.714 -1,49 0.678,4.249 1.678,8.416 3,12.5 -0.593,2.763 -2.26,4.263 -5,4.5 -10.333,-9.333 -20.667,-18.667 -31,-28 1.617,0.538 3.284,0.871 5,1 0,-1.333 0,-2.667 0,-4 3.312,0.235 4.145,-0.765 2.5,-3 -1.995,1.73 -4.162,3.063 -6.5,4 -0.14,-1.624 0.527,-2.79 2,-3.5 -1.293,-0.49 -2.627,-0.657 -4,-0.5 -0.321,-6.767 0.346,-13.434 2,-20 -0.933,-14.648 -1.266,-29.314 -1,-44 -1,0 -2,0 -3,0 0,-1 0,-2 0,-3 1.43,0.079 2.764,-0.254 4,-1 0.985,-2.272 1.819,-4.605 2.5,-7 0.423,-7.009 0.256,-14.009 -0.5,-21 -1,0 -2,0 -3,0 0.2,-16.017 -0.134,-32.017 -1,-48 -1.644,0.214 -3.144,-0.12 -4.5,-1 -4.746,1.718 -4.579,2.718 0.5,3 0,1.333 0,2.667 0,4 -2.744,0.252 -5.244,-0.415 -7.5,-2 -0.5,0.333 -1,0.667 -1.5,1 3.146,2.312 6.146,4.812 9,7.5 -3.556,0.685 -6.889,0.185 -10,-1.5 -2.012,0.34 -4.012,0.673 -6,1 -0.216,-2.756 -1.216,-5.09 -3,-7 6.671,-5.287 14.337,-8.287 23,-9 8.237,-0.296 16.237,-1.296 24,-3 0,-0.667 0,-1.333 0,-2 0.667,-0.333 1.333,-0.667 2,-1 z"
       id="path4033" />
  </g>
  <g
     id="g4039"
     transform="translate(-249.97028,0.5)">
    <path
       style="opacity:1"
       fill="#c8cac8"
       d="m 815.5,335.5 c 7.063,14.39 10.063,29.723 9,46 -13.844,0.329 -27.51,-0.004 -41,-1 7.374,0.116 14.708,-0.384 22,-1.5 -2,-0.333 -4,-0.667 -6,-1 0.667,-0.333 1.333,-0.667 2,-1 -6.028,-0.17 -12.028,-0.67 -18,-1.5 4.62,-0.993 9.286,-1.327 14,-1 0,-1 0,-2 0,-3 4.532,0.431 8.865,-0.069 13,-1.5 -1.123,-1.044 -2.456,-1.71 -4,-2 1.683,-5.928 2.683,-12.095 3,-18.5 -0.477,-0.978 -1.143,-1.811 -2,-2.5 2.33,-1.799 4.33,-3.965 6,-6.5 -1.503,-0.552 -3.169,-0.552 -5,0 0.334,-4.148 2.667,-5.815 7,-5 z"
       id="path4037" />
  </g>
  <g
     id="g4055"
     transform="translate(-249.97028,0.5)">
    <path
       style="opacity:1"
       fill="#d5d5d5"
       d="m 800.5,316.5 c 2.914,1.406 5.414,3.406 7.5,6 3.155,3.98 5.655,8.314 7.5,13 -4.333,-0.815 -6.666,0.852 -7,5 1.831,-0.552 3.497,-0.552 5,0 -1.67,2.535 -3.67,4.701 -6,6.5 0.857,0.689 1.523,1.522 2,2.5 -0.317,6.405 -1.317,12.572 -3,18.5 1.544,0.29 2.877,0.956 4,2 -4.135,1.431 -8.468,1.931 -13,1.5 -4.346,0.166 -8.679,-10e-4 -13,-0.5 2.288,-0.946 4.455,-2.113 6.5,-3.5 0.333,-3.667 0.667,-7.333 1,-11 1.133,1.711 2.633,2.211 4.5,1.5 0.652,-2.09 0.819,-4.257 0.5,-6.5 2.473,-0.62 4.973,-1.286 7.5,-2 1.333,-2.667 0.667,-3.333 -2,-2 -1.247,-1.506 -1.247,-3.006 0,-4.5 -2.05,-3.765 -5.05,-4.599 -9,-2.5 0.219,1.175 -0.114,2.175 -1,3 -0.998,-7.972 -1.331,-15.972 -1,-24 -2.667,0 -5.333,0 -8,0 0,-1 0,-2 0,-3 1.965,0.629 3.965,1.296 6,2 2.481,-0.313 4.647,-1.313 6.5,-3 1.473,0.403 2.806,1.07 4,2 0.399,-0.228 0.565,-0.562 0.5,-1 z"
       id="path4053" />
  </g>
  <g
     id="g4063"
     transform="translate(-249.97028,0.5)">
    <path
       style="opacity:1"
       fill="#e2e2e2"
       d="m 771.5,303.5 c 4.053,0.513 8.053,1.346 12,2.5 2.715,1.908 5.715,3.241 9,4 2.855,2.031 5.522,4.197 8,6.5 0.065,0.438 -0.101,0.772 -0.5,1 -1.194,-0.93 -2.527,-1.597 -4,-2 -1.853,1.687 -4.019,2.687 -6.5,3 -2.035,-0.704 -4.035,-1.371 -6,-2 0,1 0,2 0,3 2.667,0 5.333,0 8,0 -0.331,8.028 0.002,16.028 1,24 0.886,-0.825 1.219,-1.825 1,-3 3.95,-2.099 6.95,-1.265 9,2.5 -1.247,1.494 -1.247,2.994 0,4.5 2.667,-1.333 3.333,-0.667 2,2 -2.527,0.714 -5.027,1.38 -7.5,2 0.319,2.243 0.152,4.41 -0.5,6.5 -1.867,0.711 -3.367,0.211 -4.5,-1.5 -0.333,3.667 -0.667,7.333 -1,11 -2.045,1.387 -4.212,2.554 -6.5,3.5 4.321,0.499 8.654,0.666 13,0.5 0,1 0,2 0,3 -4.714,-0.327 -9.38,0.007 -14,1 5.972,0.83 11.972,1.33 18,1.5 -0.667,0.333 -1.333,0.667 -2,1 2,0.333 4,0.667 6,1 -7.292,1.116 -14.626,1.616 -22,1.5 -5.771,0.613 -11.104,-0.054 -16,-2 18.504,0.272 18.504,-0.728 0,-3 -2.317,-2.237 -2.483,-4.57 -0.5,-7 1.84,1.333 2.34,1.166 1.5,-0.5 0.827,-18.76 1.327,-37.593 1.5,-56.5 0.183,-2.865 0.683,-5.531 1.5,-8 z"
       id="path4061" />
  </g>
  <g
     id="g4067"
     transform="translate(-249.97028,0.5)">
    <path
       style="opacity:1"
       fill="#edebeb"
       d="m 771.5,303.5 c -0.817,2.469 -1.317,5.135 -1.5,8 -0.173,18.907 -0.673,37.74 -1.5,56.5 0.84,1.666 0.34,1.833 -1.5,0.5 -1.983,2.43 -1.817,4.763 0.5,7 18.504,2.272 18.504,3.272 0,3 -0.958,0.453 -1.792,1.119 -2.5,2 -0.333,-0.333 -0.667,-0.667 -1,-1 -0.174,-5.184 -0.674,-10.184 -1.5,-15 0.098,-2.053 -0.569,-3.72 -2,-5 -0.667,-1.333 -1.667,-2.333 -3,-3 -1.249,-1.636 -2.916,-2.803 -5,-3.5 -3.196,-0.805 -6.196,-0.638 -9,0.5 -1.983,0.971 -3.983,1.971 -6,3 -0.14,-1.624 0.527,-2.79 2,-3.5 -0.333,-0.333 -0.667,-0.667 -1,-1 1.756,-0.202 3.422,-0.702 5,-1.5 1.333,-1.333 1.333,-2.667 0,-4 0.477,-0.978 1.143,-1.811 2,-2.5 -0.782,-2.74 -1.282,-5.574 -1.5,-8.5 -0.333,2.667 -0.667,5.333 -1,8 -0.372,-3.818 -1.206,-7.485 -2.5,-11 2.012,0.514 4.012,0.68 6,0.5 0.837,-1.011 1.17,-2.178 1,-3.5 -1.808,0.009 -3.475,-0.491 -5,-1.5 -0.833,-2.167 -2.333,-3.667 -4.5,-4.5 -0.844,-1.963 -0.344,-3.296 1.5,-4 0.626,2.815 1.96,5.315 4,7.5 2.867,0.801 5.534,0.634 8,-0.5 2.119,0.032 3.452,-0.968 4,-3 1.7,-4.046 1.034,-7.713 -2,-11 1.322,-0.17 2.489,0.163 3.5,1 0.117,-1.45 -0.05,-2.95 -0.5,-4.5 0.878,-1.8 1.545,-3.633 2,-5.5 -2.216,0.225 -3.883,-0.608 -5,-2.5 6.233,-0.125 12.233,0.708 18,2.5 z"
       id="path4065" />
  </g>
  <g
     id="g4079"
     transform="translate(-249.97028,0.5)">
    <path
       style="opacity:1"
       fill="#eaeae9"
       d="m 921.5,367.5 c -3.333,0 -6.667,0 -10,0 0.458,2.894 -0.209,5.394 -2,7.5 0.067,7.891 0.401,16.058 1,24.5 3.549,-1.631 5.549,-0.464 6,3.5 -1.444,2.949 -3.11,5.782 -5,8.5 0.029,1.529 0.696,2.696 2,3.5 -1.5,1.167 -3,2.333 -4.5,3.5 -0.199,1.902 -1.033,3.402 -2.5,4.5 0.948,0.483 1.948,0.649 3,0.5 0.277,17.351 -0.056,34.684 -1,52 2.239,5.947 2.239,11.947 0,18 3.759,17.614 3.926,35.281 0.5,53 -1.11,1.743 -2.61,3.076 -4.5,4 1.189,0.929 2.522,1.262 4,1 -0.354,2.921 0.646,5.254 3,7 -1.288,5.66 -1.955,11.493 -2,17.5 0.167,5.5 0.333,11 0.5,16.5 2.019,2.762 1.852,5.428 -0.5,8 0.915,0.828 1.581,1.828 2,3 -2.02,3.078 -3.354,6.412 -4,10 -0.841,-3.662 -1.508,-7.495 -2,-11.5 -0.184,-1.376 -0.851,-2.209 -2,-2.5 -0.208,-2.42 0.126,-4.753 1,-7 -0.825,-0.886 -1.825,-1.219 -3,-1 0,1.333 0,2.667 0,4 -1.667,0 -3.333,0 -5,0 -0.17,-1.322 0.163,-2.489 1,-3.5 -1.963,-10.577 -2.63,-21.41 -2,-32.5 1.478,0.262 2.811,-0.071 4,-1 -1.412,-1.306 -3.079,-2.14 -5,-2.5 1.5,-1.115 3.167,-1.948 5,-2.5 1.211,0.774 1.211,1.607 0,2.5 0.948,0.483 1.948,0.649 3,0.5 -0.214,-1.644 0.12,-3.144 1,-4.5 -1.725,0.409 -3.392,0.242 -5,-0.5 -1.307,-1.365 -1.307,-2.698 0,-4 0.324,-6.854 -0.009,-13.521 -1,-20 -0.667,-10.667 -1.333,-21.333 -2,-32 0,-5.333 0,-10.667 0,-16 -0.553,-15.696 -1.053,-31.363 -1.5,-47 0.654,1.196 1.154,1.196 1.5,0 -1.723,-2.368 -2.39,-5.034 -2,-8 -0.136,-3.051 0.198,-6.051 1,-9 -0.663,-3.306 -1.163,-6.639 -1.5,-10 -2.801,-1.295 -5.634,-1.295 -8.5,0 -1,-0.5 -2,-1 -3,-1.5 1.561,-0.941 2.895,-2.108 4,-3.5 -1.865,-1.166 -3.532,-0.833 -5,1 -0.765,-3.825 -1.432,-7.658 -2,-11.5 0.392,-1.011 1.059,-1.511 2,-1.5 -0.209,-0.586 -0.543,-1.086 -1,-1.5 6.32,0.499 11.32,-1.667 15,-6.5 2.667,-4.333 2.667,-8.667 0,-13 13.641,-1.314 22.641,-1.314 27,0 z"
       id="path4077" />
  </g>
  <g
     id="g4095"
     transform="translate(-249.97028,0.5)">
    <path
       style="opacity:1"
       fill="#eeeded"
       d="m 1133.5,359.5 c -0.02,1.643 0.65,2.976 2,4 5.33,0.667 10.67,1.333 16,2 -1.05,3.247 -1.72,6.58 -2,10 -0.2,8.103 -0.2,16.27 0,24.5 -4.41,1.885 -9.08,3.052 -14,3.5 7.98,0.832 15.98,1.332 24,1.5 0.67,0.333 1.33,0.667 2,1 -4.32,0.499 -8.65,0.666 -13,0.5 -5.37,0.177 -10.7,-0.156 -16,-1 -1,0.167 -2,0.333 -3,0.5 -0.91,3.184 -2.74,4.017 -5.5,2.5 -2.75,-3.001 -2.92,-6.001 -0.5,-9 0.97,1.896 1.3,3.896 1,6 1,0 2,0 3,0 -0.22,-4.934 -0.89,-9.767 -2,-14.5 2.49,-1.685 2.15,-3.019 -1,-4 1.93,-0.251 3.77,-0.751 5.5,-1.5 0.24,-1.288 -0.26,-2.288 -1.5,-3 3.11,-0.055 5.45,-1.388 7,-4 0,-0.667 0.33,-1 1,-1 0.65,-0.949 0.99,-2.115 1,-3.5 0.19,-2.008 -0.47,-3.508 -2,-4.5 -0.81,-1.228 -1.81,-2.228 -3,-3 -0.71,-0.904 -1.71,-1.237 -3,-1 -0.08,-1.25 -0.74,-2.083 -2,-2.5 1.26,-0.417 1.92,-1.25 2,-2.5 0.9,-0.709 1.24,-1.709 1,-3 1.68,-0.215 2.68,0.452 3,2 z"
       id="path4093" />
  </g>
  <g
     id="g4111"
     transform="translate(-249.97028,0.5)">
    <path
       style="opacity:1"
       fill="#dedede"
       d="m 935.5,366.5 c -3.619,6.02 -5.619,12.686 -6,20 2.89,1.543 4.557,3.876 5,7 -1,0 -2,0 -3,0 -0.016,82.153 -0.016,164.153 0,246 -5.475,0.989 -11.142,1.322 -17,1 2.107,-0.968 4.441,-1.302 7,-1 0.66,-77.812 -0.007,-155.479 -2,-233 1.603,-0.708 3.603,-1.375 6,-2 0,-1.333 0,-2.667 0,-4 -3.407,0.375 -3.907,-0.625 -1.5,-3 1.584,1.361 3.418,2.028 5.5,2 -0.226,-2.749 0.107,-5.416 1,-8 -1.729,-2.351 -2.396,-5.018 -2,-8 -1.175,-0.219 -2.175,0.114 -3,1 -0.07,2.144 -0.57,4.144 -1.5,6 -1.635,-1.226 -3.135,-2.559 -4.5,-4 0.525,-0.692 1.192,-1.192 2,-1.5 -0.794,-5.759 -0.794,-11.593 0,-17.5 -4.359,-1.314 -13.359,-1.314 -27,0 -1.544,-0.203 -2.878,-0.87 -4,-2 -0.464,2.475 -1.464,4.475 -3,6 0,-2 0,-4 0,-6 -1.291,-0.237 -2.291,0.096 -3,1 -1,0.667 -2,1.333 -3,2 0.9,-5.949 3.9,-7.283 9,-4 2.528,-0.669 2.528,-1.502 0,-2.5 1.351,-1.617 3.018,-2.784 5,-3.5 13.317,-0.999 26.65,-1.333 40,-1 0,3 0,6 0,9 z"
       id="path4109" />
  </g>
  <g
     id="g4131"
     transform="translate(-249.97028,0.5)">
    <path
       style="opacity:1"
       fill="#eceae9"
       d="m 765.5,404.5 c 2.073,2.08 4.407,3.746 7,5 0,0.333 0,0.667 0,1 -1,0 -2,0 -3,0 -0.149,1.052 0.017,2.052 0.5,3 4.074,4.579 8.574,8.579 13.5,12 -4.459,-0.704 -8.792,-1.537 -13,-2.5 1.181,3.218 3.181,5.718 6,7.5 -0.833,0.333 -1.667,0.667 -2.5,1 -1.585,-0.745 -3.085,-1.245 -4.5,-1.5 -0.311,22.974 0.023,46.141 1,69.5 -0.216,1.884 -0.883,3.551 -2,5 0.905,3.951 0.905,7.951 0,12 -0.163,3.676 0.837,7.009 3,10 -0.907,2.921 -1.24,5.921 -1,9 5.492,-0.835 6.826,0.832 4,5 1.521,0.38 3.187,0.546 5,0.5 -4.065,2.47 -3.731,4.303 1,5.5 -1.859,2.519 -3.859,2.519 -6,0 -1.783,0.848 -2.283,2.181 -1.5,4 1.297,-1.284 2.464,-1.117 3.5,0.5 -1.814,3.142 -3.981,5.975 -6.5,8.5 0.093,5.792 -0.741,11.292 -2.5,16.5 1.073,1.313 1.74,2.813 2,4.5 -1.254,1.834 -1.921,3.834 -2,6 1.333,0 2.667,0 4,0 0,1 0,2 0,3 4,-0.333 8,-0.667 12,-1 -4.999,2.102 -10.332,3.269 -16,3.5 -10.661,0.5 -21.328,0.667 -32,0.5 0,-0.333 0,-0.667 0,-1 7.653,0.444 15.153,-0.223 22.5,-2 0.141,-6.149 0.474,-12.483 1,-19 0.728,6.122 1.228,6.289 1.5,0.5 -0.151,-2.197 -0.485,-4.364 -1,-6.5 0.333,-0.667 0.667,-1.333 1,-2 2.952,-0.568 5.619,-1.734 8,-3.5 -1.293,-0.49 -2.627,-0.657 -4,-0.5 0,-2.333 0,-4.667 0,-7 -1.951,0.273 -3.451,-0.393 -4.5,-2 -0.333,0.667 -0.667,1.333 -1,2 -0.741,-3.062 -0.575,-6.062 0.5,-9 -0.825,-0.886 -1.825,-1.219 -3,-1 0,-1 0,-2 0,-3 3.502,1.417 7.169,2.084 11,2 -0.198,-2.881 -1.698,-4.881 -4.5,-6 -3.638,1.685 -7.471,2.351 -11.5,2 0.219,1.175 -0.114,2.175 -1,3 -1.024,-1.352 -2.024,-2.685 -3,-4 5.034,0.566 9.367,-0.767 13,-4 1,-1.333 2,-2.667 3,-4 1.427,-1.648 2.26,-3.648 2.5,-6 0.667,-6 0.667,-12 0,-18 -0.24,-2.352 -1.073,-4.352 -2.5,-6 -1.628,-5.923 -4.295,-11.256 -8,-16 2.74,-0.237 4.407,-1.737 5,-4.5 -1.322,-4.084 -2.322,-8.251 -3,-12.5 0.985,-16.286 1.318,-32.619 1,-49 1.175,0.219 2.175,-0.114 3,-1 -2.243,-0.974 -4.576,-1.308 -7,-1 0,-1.333 0,-2.667 0,-4 1,0 2,0 3,0 -0.16,-1.699 0.006,-3.366 0.5,-5 1.815,1.905 3.815,3.572 6,5 1.269,-1.405 1.769,-3.071 1.5,-5 z"
       id="path4129" />
  </g>
  <g
     id="g4155"
     transform="translate(-249.97028,0.5)">
    <path
       style="opacity:1"
       fill="#fae4db"
       d="m 893.5,424.5 c -0.39,2.966 0.277,5.632 2,8 -0.346,1.196 -0.846,1.196 -1.5,0 0.447,15.637 0.947,31.304 1.5,47 -0.667,-2.667 -1.333,-5.333 -2,-8 0,-2.667 0,-5.333 0,-8 -1.148,-18.661 -2.148,-37.328 -3,-56 -2.235,-0.295 -4.235,0.039 -6,1 -0.667,7.667 -1.333,15.333 -2,23 -0.316,-8.252 0.018,-16.419 1,-24.5 2.929,-0.777 5.763,-0.61 8.5,0.5 0.173,5.848 0.673,11.515 1.5,17 z"
       id="path4153" />
  </g>
  <g
     id="g4175"
     transform="translate(-249.97028,0.5)">
    <path
       style="opacity:1"
       fill="#d3d3d3"
       d="m 935.5,366.5 c 0.929,3.175 1.762,6.509 2.5,10 2.274,23.839 4.774,47.506 7.5,71 1.616,15.67 3.282,31.337 5,47 -2.263,2.266 -2.596,4.933 -1,8 -0.744,2.943 -1.244,5.943 -1.5,9 -0.5,42.665 -0.667,85.332 -0.5,128 -5.333,0 -10.667,0 -16,0 -0.016,-81.847 -0.016,-163.847 0,-246 1,0 2,0 3,0 -0.443,-3.124 -2.11,-5.457 -5,-7 0.381,-7.314 2.381,-13.98 6,-20 z"
       id="path4173" />
  </g>
  <g
     id="g4203"
     transform="translate(-249.97028,0.5)">
    <path
       style="opacity:1"
       fill="#e4e4e4"
       d="m 783.5,425.5 c 0.667,0 1,0.333 1,1 -0.543,0.06 -0.876,0.393 -1,1 1.789,1.123 2.122,2.456 1,4 -0.692,-0.525 -1.192,-1.192 -1.5,-2 -0.667,32.667 -0.667,65.333 0,98 0.333,-1.667 0.667,-3.333 1,-5 2.301,0.199 4.467,0.699 6.5,1.5 0.597,1.062 0.93,2.228 1,3.5 -0.997,3.493 -2.664,6.659 -5,9.5 1.889,3.524 0.889,5.357 -3,5.5 -1.202,11.223 -1.202,22.39 0,33.5 -8.988,2.445 -8.988,3.612 0,3.5 0,1 0,2 0,3 2.522,0.511 4.855,1.511 7,3 0,0.333 0,0.667 0,1 -2.088,1.439 -4.421,2.106 -7,2 -4,0.333 -8,0.667 -12,1 0,-1 0,-2 0,-3 -1.333,0 -2.667,0 -4,0 0.079,-2.166 0.746,-4.166 2,-6 -0.26,-1.687 -0.927,-3.187 -2,-4.5 1.759,-5.208 2.593,-10.708 2.5,-16.5 2.519,-2.525 4.686,-5.358 6.5,-8.5 -1.036,-1.617 -2.203,-1.784 -3.5,-0.5 -0.783,-1.819 -0.283,-3.152 1.5,-4 2.141,2.519 4.141,2.519 6,0 -4.731,-1.197 -5.065,-3.03 -1,-5.5 -1.813,0.046 -3.479,-0.12 -5,-0.5 2.826,-4.168 1.492,-5.835 -4,-5 -0.24,-3.079 0.093,-6.079 1,-9 -2.163,-2.991 -3.163,-6.324 -3,-10 0.905,-4.049 0.905,-8.049 0,-12 1.117,-1.449 1.784,-3.116 2,-5 -0.977,-23.359 -1.311,-46.526 -1,-69.5 1.415,0.255 2.915,0.755 4.5,1.5 0.833,-0.333 1.667,-0.667 2.5,-1 -2.819,-1.782 -4.819,-4.282 -6,-7.5 4.208,0.963 8.541,1.796 13,2.5 z"
       id="path4201" />
  </g>
  <g
     id="g4227"
     transform="translate(-249.97028,0.5)">
    <path
       style="opacity:1"
       fill="#d9d9d9"
       d="m 784.5,426.5 c 7.922,5.253 14.922,11.586 21,19 -1.333,0 -2.667,0 -4,0 -0.976,4.596 -0.643,8.929 1,13 -0.991,1.165 -1.991,2.332 -3,3.5 1.326,14.846 1.326,29.679 0,44.5 1.082,0.249 2.415,0.415 4,0.5 0.764,2.069 1.264,4.236 1.5,6.5 7.123,1.89 7.123,3.557 0,5 0.195,1.626 0.195,3.293 0,5 -1.333,1.333 -2.667,2.667 -4,4 -0.781,17.886 -1.114,35.553 -1,53 -2.768,-0.202 -5.601,-0.202 -8.5,0 2.658,2.197 2.325,3.864 -1,5 -2.145,-1.489 -4.478,-2.489 -7,-3 0,-1 0,-2 0,-3 -8.988,0.112 -8.988,-1.055 0,-3.5 -1.202,-11.11 -1.202,-22.277 0,-33.5 3.889,-0.143 4.889,-1.976 3,-5.5 2.336,-2.841 4.003,-6.007 5,-9.5 -0.07,-1.272 -0.403,-2.438 -1,-3.5 -2.033,-0.801 -4.199,-1.301 -6.5,-1.5 -0.333,1.667 -0.667,3.333 -1,5 -0.667,-32.667 -0.667,-65.333 0,-98 0.308,0.808 0.808,1.475 1.5,2 1.122,-1.544 0.789,-2.877 -1,-4 0.124,-0.607 0.457,-0.94 1,-1 z"
       id="path4225" />
  </g>
  <g
     id="g4291"
     transform="translate(-249.97028,0.5)">
    <path
       style="opacity:1"
       fill="#cecccc"
       d="m 805.5,445.5 c 8.293,9.253 13.96,19.919 17,32 -3.827,34.208 -7.493,67.875 -11,101 0.16,-1.699 -0.006,-3.366 -0.5,-5 -4.45,4.298 -9.283,7.965 -14.5,11 -2,0.667 -4,1.333 -6,2 0,-0.333 0,-0.667 0,-1 3.325,-1.136 3.658,-2.803 1,-5 2.899,-0.202 5.732,-0.202 8.5,0 -0.114,-17.447 0.219,-35.114 1,-53 1.333,-1.333 2.667,-2.667 4,-4 0.195,-1.707 0.195,-3.374 0,-5 7.123,-1.443 7.123,-3.11 0,-5 -0.236,-2.264 -0.736,-4.431 -1.5,-6.5 -1.585,-0.085 -2.918,-0.251 -4,-0.5 1.326,-14.821 1.326,-29.654 0,-44.5 1.009,-1.168 2.009,-2.335 3,-3.5 -1.643,-4.071 -1.976,-8.404 -1,-13 1.333,0 2.667,0 4,0 z"
       id="path4289" />
  </g>
  <g
     id="g4343"
     transform="translate(-249.97028,0.5)">
    <path
       style="opacity:1"
       fill="#efeeef"
       d="m 1188.5,470.5 c -5.67,0 -11.33,0 -17,0 -7.67,-0.166 -15.34,0 -23,0.5 0.88,1.356 1.21,2.856 1,4.5 -1.48,-0.262 -2.81,0.071 -4,1 1.77,0.687 3.44,1.52 5,2.5 -1.31,5.254 -1.97,10.754 -2,16.5 0.01,5.579 0.34,11.079 1,16.5 -4.27,1.095 -7.94,3.262 -11,6.5 7.64,0.997 15.3,1.331 23,1 0,0.333 0,0.667 0,1 -8.67,0 -17.33,0 -26,0 0,-1 0,-2 0,-3 -4.8,0.788 -7.64,-1.212 -8.5,-6 -0.5,-10.661 -0.67,-21.328 -0.5,-32 1.7,0.16 3.37,-0.006 5,-0.5 -3.53,-3.071 -7.53,-4.904 -12,-5.5 -0.16,-1.699 0.01,-3.366 0.5,-5 0.72,0.951 1.55,1.117 2.5,0.5 -2.71,-1.668 -2.54,-2.501 0.5,-2.5 2.67,1.674 5.5,3.007 8.5,4 19.16,-1.289 38.16,-1.289 57,0 z"
       id="path4341" />
  </g>
  <g
     id="g4355" />
  <g
     id="g4359"
     transform="translate(-249.97028,0.5)">
    <path
       style="opacity:1"
       fill="#dedede"
       d="m 1171.5,470.5 c -1.31,0.967 -1.97,2.301 -2,4 1.97,0.239 3.8,-0.094 5.5,-1 0.75,0.626 1.58,1.126 2.5,1.5 -1.76,0.202 -3.42,0.702 -5,1.5 1.05,1.602 0.38,2.435 -2,2.5 3.44,0.221 3.78,1.221 1,3 1.63,0.494 3.3,0.66 5,0.5 -0.24,1.967 0.09,3.801 1,5.5 -1,0.833 -2,1.667 -3,2.5 0.19,7.573 0.19,15.24 0,23 -0.48,0.978 -1.14,1.811 -2,2.5 -3.93,0.702 -7.6,1.868 -11,3.5 -7.7,0.331 -15.36,-0.003 -23,-1 3.06,-3.238 6.73,-5.405 11,-6.5 -0.66,-5.421 -0.99,-10.921 -1,-16.5 0.03,-5.746 0.69,-11.246 2,-16.5 -1.56,-0.98 -3.23,-1.813 -5,-2.5 1.19,-0.929 2.52,-1.262 4,-1 0.21,-1.644 -0.12,-3.144 -1,-4.5 7.66,-0.5 15.33,-0.666 23,-0.5 z"
       id="path4357" />
  </g>
  <g
     id="g4367"
     transform="translate(-249.97028,0.5)">
    <path
       style="opacity:1"
       fill="#fcfaf9"
       d="m 671.5,480.5 c 21.333,0 42.667,0 64,0 -0.167,11.338 0,22.672 0.5,34 0.198,1.882 0.698,3.548 1.5,5 -0.092,5.063 1.574,9.397 5,13 -1.667,0 -3.333,0 -5,0 0.219,1.175 -0.114,2.175 -1,3 -4.543,-12.921 -6.209,-26.254 -5,-40 -2.333,0 -4.667,0 -7,0 -0.167,26.669 0,53.335 0.5,80 3.312,1.476 6.812,2.31 10.5,2.5 -5.364,0.171 -10.698,0.671 -16,1.5 -1.573,1.16 -3.239,2.16 -5,3 -3.632,-0.85 -7.299,-0.85 -11,0 -11.613,-6.939 -19.947,-16.606 -25,-29 -0.16,-1.653 -0.826,-2.986 -2,-4 0,-0.333 0,-0.667 0,-1 -1.507,-7.156 -3.174,-14.156 -5,-21 0,-3 0,-6 0,-9 0,-2.333 0,-4.667 0,-7 0,-10.333 0,-20.667 0,-31 z"
       id="path4365" />
  </g>
  <g
     id="g4375"
     transform="translate(-249.97028,0.5)">
    <path
       style="opacity:1"
       fill="#fdcac2"
       d="m 1131.5,466.5 c 20.33,0 40.67,0 61,0 0,18 0,36 0,54 -0.33,0 -0.67,0 -1,0 0,-17.667 0,-35.333 0,-53 -20.17,0.33 -40.17,-0.003 -60,-1 z"
       id="path4373" />
  </g>
  <g
     id="g4379"
     transform="translate(-249.97028,0.5)">
    <path
       style="opacity:1"
       fill="#cfd0d0"
       d="m 1171.5,470.5 c 5.67,0 11.33,0 17,0 0,16.667 0,33.333 0,50 -9,0 -18,0 -27,0 0,-0.333 0,-0.667 0,-1 3.4,-1.632 7.07,-2.798 11,-3.5 0.86,-0.689 1.52,-1.522 2,-2.5 0.19,-7.76 0.19,-15.427 0,-23 1,-0.833 2,-1.667 3,-2.5 -0.91,-1.699 -1.24,-3.533 -1,-5.5 -1.7,0.16 -3.37,-0.006 -5,-0.5 2.78,-1.779 2.44,-2.779 -1,-3 2.38,-0.065 3.05,-0.898 2,-2.5 1.58,-0.798 3.24,-1.298 5,-1.5 -0.92,-0.374 -1.75,-0.874 -2.5,-1.5 -1.7,0.906 -3.53,1.239 -5.5,1 0.03,-1.699 0.69,-3.033 2,-4 z"
       id="path4377" />
  </g>
  <g
     id="g4391"
     transform="translate(-249.97028,0.5)">
    <path
       style="opacity:1"
       fill="#cacbcb"
       d="m 950.5,494.5 c 0.94,6.644 1.774,13.31 2.5,20 0.5,24.998 0.667,49.998 0.5,75 2.667,0 5.333,0 8,0 1.749,17.656 3.415,35.323 5,53 -18.743,0.32 -37.41,-0.014 -56,-1 -0.131,-0.739 0.036,-1.406 0.5,-2 1.011,0.837 2.178,1.17 3.5,1 5.858,0.322 11.525,-0.011 17,-1 5.333,0 10.667,0 16,0 -0.167,-42.668 0,-85.335 0.5,-128 0.256,-3.057 0.756,-6.057 1.5,-9 -1.596,-3.067 -1.263,-5.734 1,-8 z"
       id="path4389" />
  </g>
  <g
     id="g4395"
     transform="translate(-249.97028,0.5)">
    <path
       style="opacity:1"
       fill="#f5f5f4"
       d="m 742.5,532.5 c 0.891,0.61 1.891,0.943 3,1 0.667,0.667 1.333,1.333 2,2 0.976,1.315 1.976,2.648 3,4 0.886,-0.825 1.219,-1.825 1,-3 4.029,0.351 7.862,-0.315 11.5,-2 2.802,1.119 4.302,3.119 4.5,6 -3.831,0.084 -7.498,-0.583 -11,-2 0,1 0,2 0,3 1.175,-0.219 2.175,0.114 3,1 -1.075,2.938 -1.241,5.938 -0.5,9 0.333,-0.667 0.667,-1.333 1,-2 1.049,1.607 2.549,2.273 4.5,2 0,2.333 0,4.667 0,7 1.373,-0.157 2.707,0.01 4,0.5 -2.381,1.766 -5.048,2.932 -8,3.5 -0.333,0.667 -0.667,1.333 -1,2 0.515,2.136 0.849,4.303 1,6.5 -0.272,5.789 -0.772,5.622 -1.5,-0.5 -0.526,6.517 -0.859,12.851 -1,19 -7.347,1.777 -14.847,2.444 -22.5,2 -2.667,0 -5.333,0 -8,0 -8.173,-2.612 -16.173,-5.612 -24,-9 3.701,-0.85 7.368,-0.85 11,0 1.761,-0.84 3.427,-1.84 5,-3 5.302,-0.829 10.636,-1.329 16,-1.5 -3.688,-0.19 -7.188,-1.024 -10.5,-2.5 -0.5,-26.665 -0.667,-53.331 -0.5,-80 2.333,0 4.667,0 7,0 -1.209,13.746 0.457,27.079 5,40 0.886,-0.825 1.219,-1.825 1,-3 1.667,0 3.333,0 5,0 z"
       id="path4393" />
  </g>
  <g
     id="g4491"
     transform="translate(-249.97028,0.5)">
    <path
       style="opacity:1"
       fill="#eaeaea"
       d="m 1018.5,536.5 c 7,0 14,0 21,0 0,1.333 0,2.667 0,4 2.36,-0.163 4.69,0.003 7,0.5 -1.13,1.016 -0.8,1.683 1,2 -1.31,5.254 -1.97,10.754 -2,16.5 0.17,5.333 0.33,10.667 0.5,16 3.13,0.63 6.3,1.296 9.5,2 -22.63,1.33 -22.63,1.997 0,2 0,1.667 0,3.333 0,5 -8,0 -16,0 -24,0 -7.99,-0.5 -15.99,-1 -24,-1.5 5.33,-0.333 10.67,-0.667 16,-1 -5.76,0.122 -11.09,-0.711 -16,-2.5 4.82,-0.826 9.82,-1.326 15,-1.5 0.33,-0.333 0.67,-0.667 1,-1 -3.32,-0.498 -6.65,-0.665 -10,-0.5 0,-11 0,-22 0,-33 -3.57,-0.868 -3.57,-2.368 0,-4.5 -0.95,-0.718 -1.12,-1.551 -0.5,-2.5 1.83,1.252 3.66,1.252 5.5,0 z"
       id="path4489" />
  </g>
  <g
     id="g4499"
     transform="translate(-249.97028,0.5)">
    <path
       style="opacity:1"
       fill="#dcd9d8"
       d="m 1039.5,536.5 c 8.33,0 16.67,0 25,0 0,17.667 0,35.333 0,53 -6.67,0 -13.33,0 -20,0 -26.33,0 -52.667,0 -79,0 21.83,-0.832 43.83,-1.332 66,-1.5 -2.67,-0.333 -5.33,-0.667 -8,-1 3.18,0.053 5.84,-0.78 8,-2.5 8,0 16,0 24,0 0,-1.667 0,-3.333 0,-5 -22.63,-0.003 -22.63,-0.67 0,-2 -3.2,-0.704 -6.37,-1.37 -9.5,-2 -0.17,-5.333 -0.33,-10.667 -0.5,-16 0.03,-5.746 0.69,-11.246 2,-16.5 -1.8,-0.317 -2.13,-0.984 -1,-2 -2.31,-0.497 -4.64,-0.663 -7,-0.5 0,-1.333 0,-2.667 0,-4 z"
       id="path4497" />
  </g>
  <g
     id="g4579"
     transform="translate(-249.97028,0.5)">
    <path
       style="opacity:1"
       fill="#e5e4e4"
       d="m 1195.5,591.5 c -6.33,0 -12.67,0 -19,0 -4.68,-0.166 -9.35,10e-4 -14,0.5 0.92,0.374 1.75,0.874 2.5,1.5 0.25,1.933 0.75,3.766 1.5,5.5 -1.35,1.574 -2.01,3.407 -2,5.5 0.6,11.663 1.27,23.33 2,35 2.92,0.907 5.92,1.24 9,1 -0.11,0.617 -0.44,1.117 -1,1.5 6.99,0.5 13.99,0.666 21,0.5 0,0.333 0,0.667 0,1 -19.33,0 -38.67,0 -58,0 3.85,-0.666 7.85,-1.333 12,-2 -3.61,-1.039 -7.27,-1.705 -11,-2 -0.31,-13.87 0.03,-27.703 1,-41.5 -0.57,-1.872 -1.23,-3.705 -2,-5.5 11.95,-1.454 23.95,-2.12 36,-2 7.51,0 14.84,0.334 22,1 z"
       id="path4577" />
  </g>
  <g
     id="g4583"
     transform="translate(-249.97028,0.5)">
    <path
       style="opacity:1"
       fill="#d6d5d5"
       d="m 1176.5,591.5 c 1.54,0.663 3.21,1.33 5,2 -0.88,0.751 -1.88,1.251 -3,1.5 2.67,1 2.67,2 0,3 1.66,13.833 2.66,27.833 3,42 -1.97,0.495 -3.97,0.662 -6,0.5 -3.08,0.24 -6.08,-0.093 -9,-1 -0.73,-11.67 -1.4,-23.337 -2,-35 -0.01,-2.093 0.65,-3.926 2,-5.5 -0.75,-1.734 -1.25,-3.567 -1.5,-5.5 -0.75,-0.626 -1.58,-1.126 -2.5,-1.5 4.65,-0.499 9.32,-0.666 14,-0.5 z"
       id="path4581" />
  </g>
  <g
     id="g4587"
     transform="translate(-249.97028,0.5)">
    <path
       style="opacity:1"
       fill="#c6c7c7"
       d="m 1176.5,591.5 c 6.33,0 12.67,0 19,0 0,17 0,34 0,51 -7.01,0.166 -14.01,0 -21,-0.5 0.56,-0.383 0.89,-0.883 1,-1.5 2.03,0.162 4.03,-0.005 6,-0.5 -0.34,-14.167 -1.34,-28.167 -3,-42 2.67,-1 2.67,-2 0,-3 1.12,-0.249 2.12,-0.749 3,-1.5 -1.79,-0.67 -3.46,-1.337 -5,-2 z"
       id="path4585" />
  </g>
</svg>
