<?xml version="1.0" encoding="UTF-8" standalone="no"?>
<!-- Created with Inkscape (http://www.inkscape.org/) -->

<svg
   width="212mm"
   height="213mm"
   viewBox="0 0 212 213"
   version="1.1"
   id="svg5"
   xml:space="preserve"
   sodipodi:docname="zoom.svg"
   inkscape:version="1.2.2 (b0a8486541, 2022-12-01)"
   xmlns:inkscape="http://www.inkscape.org/namespaces/inkscape"
   xmlns:sodipodi="http://sodipodi.sourceforge.net/DTD/sodipodi-0.dtd"
   xmlns="http://www.w3.org/2000/svg"
   xmlns:svg="http://www.w3.org/2000/svg"><sodipodi:namedview
     id="namedview7"
     pagecolor="#ffffff"
     bordercolor="#000000"
     borderopacity="0.25"
     inkscape:showpageshadow="2"
     inkscape:pageopacity="0.0"
     inkscape:pagecheckerboard="0"
     inkscape:deskcolor="#d1d1d1"
     inkscape:document-units="mm"
     showgrid="false"
     inkscape:zoom="0.78127806"
     inkscape:cx="392.30591"
     inkscape:cy="371.82665"
     inkscape:window-width="1920"
     inkscape:window-height="1056"
     inkscape:window-x="0"
     inkscape:window-y="0"
     inkscape:window-maximized="1"
     inkscape:current-layer="layer1" /><defs
     id="defs2" /><g
     inkscape:label="Layer 1"
     inkscape:groupmode="layer"
     id="layer1"><path
       style="fill:#ffffff;stroke-width:1.25"
       d="M 9.65386,202.84597 6,199.19217 v -25.19232 -25.19228 l 3.65386,-3.6538 c 4.84024,-4.84024 10.9285,-4.98062 15.55066,-0.35856 2.9639,2.9639 3.29546,4.22152 3.29546,12.5 0,5.0625 0.40204,9.20452 0.89352,9.20452 0.4914,0 10.79248,-9.84372 22.8913,-21.87496 20.20848,-20.09566 22.35878,-21.87496 26.43598,-21.87496 6.07534,0 11.02916,4.95376 11.02916,11.02912 0,4.0772 -1.77934,6.22754 -21.87496,26.43602 -12.03128,12.09878 -21.875,22.39986 -21.875,22.8913 0,0.49142 4.07812,0.91138 9.0625,0.9332 9.38182,0.0426 11.95896,1.07602 14.48326,5.8156 2.46288,4.62416 1.70784,9.08338 -2.19962,12.99078 l -3.65384,3.65388 H 38.5 13.3077 Z m 134.99988,0 c -4.84024,-4.84024 -4.98056,-10.9285 -0.3586,-15.55066 2.9639,-2.9639 4.22156,-3.29546 12.49998,-3.29546 5.06252,0 9.20458,-0.40204 9.20458,-0.89348 0,-0.49142 -9.84372,-10.79252 -21.875,-22.8913 -20.09562,-20.20844 -21.875,-22.3588 -21.875,-26.43602 0,-6.07534 4.95382,-11.02912 11.02912,-11.02912 4.07722,0 6.22758,1.7793 26.43602,21.875 12.09884,12.03122 22.39988,21.87492 22.8913,21.87492 0.49146,0 0.89356,-4.14202 0.89356,-9.2045 0,-8.27848 0.33164,-9.53612 3.2954,-12.50002 4.62218,-4.62218 10.71048,-4.4818 15.55072,0.35858 l 3.65386,3.65382 v 25.19228 25.1923 l -3.65386,3.65382 -3.65388,3.65384 H 173.49988 148.3076 Z M 78.49998,93.13789 C 77.46868,92.77221 66.70558,82.62187 54.5819,70.5814 L 32.53892,48.689637 32.05788,58.21545 c -0.4214,8.34694 -0.89928,9.94407 -3.86036,12.90519 -4.4125,4.41245 -10.84514,4.58555 -15.28836,0.41149 L 9.75,68.56421 V 42.125022 C 9.75,7.334928 6.81888,10.250074 41.80012,10.250074 h 26.26406 l 2.96788,3.159164 c 4.17414,4.44316 4.00104,10.875862 -0.4115,15.288316 -2.9611,2.961116 -4.55826,3.438894 -12.90518,3.860358 l -9.52582,0.48104 21.95904,22.043035 C 83.40566,68.38974 92.42378,78.43388 92.90548,80.42786 c 1.13272,4.68921 -2.23456,10.50651 -7.05416,12.18661 -4.29972,1.4989 -4.5497,1.51672 -7.3514,0.52346 z m 47.04536,-6.1834 c -2.32306,-2.32308 -3.29544,-4.60502 -3.29544,-7.73367 0,-4.07721 1.77934,-6.22757 21.875,-26.436024 12.03124,-12.098782 21.87498,-22.399874 21.87498,-22.891306 0,-0.491432 -4.14208,-0.89348 -9.20456,-0.89348 -8.27844,0 -9.53608,-0.331652 -12.49998,-3.29546 -4.62216,-4.62217 -4.48184,-10.710466 0.35858,-15.550712 l 3.6538,-3.653808 h 25.19232 25.19228 l 3.65384,3.653808 L 206,13.807692 V 38.99997 64.1923 l -3.65384,3.6538 c -4.84026,4.84025 -10.9285,4.98057 -15.55068,0.35859 -2.9639,-2.96391 -3.29546,-4.2215 -3.29546,-12.499983 0,-5.06248 -0.40204,-9.20456 -0.89348,-9.20456 -0.49144,0 -10.79252,9.84378 -22.89132,21.874993 -20.20844,20.09565 -22.3588,21.87499 -26.436,21.87499 -3.12864,0 -5.4106,-0.97238 -7.73368,-3.29546 z"
       id="path194" /></g></svg>
